<?xml version="1.0" encoding="UTF-8"?>
<svg version="1.1" xmlns="http://www.w3.org/2000/svg" width="2204" height="2217">
<path d="M0 0 C1.93359375 0.14115234 1.93359375 0.14115234 3.90625 0.28515625 C9.94005871 1.3804237 13.3818977 4.56953645 17.63818359 8.83276367 C18.12510178 9.31778351 18.61201996 9.80280334 19.11369324 10.30252075 C20.71352759 11.89866736 22.30607195 13.50187369 23.8984375 15.10546875 C25.01758888 16.22581396 26.13711208 17.34578787 27.25698853 18.46540833 C29.60184789 20.81182951 31.94331871 23.1615626 34.28222656 25.51391602 C37.26151671 28.51012647 40.24727687 31.49978229 43.23541832 34.48716259 C45.54873609 36.80075416 47.85942383 39.11695772 50.16926956 41.43401527 C51.26815828 42.53605926 52.36762997 43.6375223 53.46772385 44.73836327 C58.86708168 50.14540114 64.20767663 55.56118081 69.16519165 61.38374329 C70.84610667 63.34037849 72.64493285 65.14640068 74.5 66.9375 C77.62754053 70.02333999 80.53382257 73.218743 83.39453125 76.55078125 C85.6059256 79.05757521 87.8797846 81.4949491 90.16772461 83.93164062 C95.42880763 89.53503636 100.4512871 95.22280733 105.2578125 101.2265625 C107.73907733 104.22655865 110.34886537 107.08881911 113 109.9375 C117.23406818 114.49333693 121.22932418 119.19022095 125.12890625 124.03515625 C127.81831171 127.32713032 130.59170396 130.53754968 133.375 133.75 C138.84363316 140.08529452 144.03842564 146.60336052 149.16308594 153.21826172 C150.45731916 154.8826135 151.76141966 156.53856712 153.0703125 158.19140625 C164.48074697 172.60458664 175.73385301 187.15987799 186.28710938 202.21533203 C187.56142549 204.02471727 188.84974997 205.82348956 190.140625 207.62109375 C220.35211731 249.83110437 247.23331226 294.36222181 270.79736328 340.59960938 C271.91104215 342.78289264 273.02903539 344.9639819 274.15185547 347.14257812 C304.20654175 405.46437848 331.20640028 471.01755277 341.8203125 535.98681641 C342.38361421 539.3600255 343.0549574 542.70298816 343.75169373 546.05082703 C349.54845598 574.21142947 349.11320289 602.45847348 348.69084167 631.05882263 C348.53356782 641.82861313 348.46543239 652.5962547 348.44364929 663.36715698 C348.42926786 670.47699118 348.39540111 677.58669266 348.35667133 684.69643211 C348.33000098 689.66708717 348.30966773 694.63754636 348.30636597 699.60827637 C348.28064871 722.61030906 347.29668476 744.37677934 342.5 766.9375 C342.19133463 768.4824741 341.88421322 770.02775832 341.5793457 771.57348633 C340.86442033 775.0468414 340.08423506 778.49112191 339.25 781.9375 C338.8156665 783.75930786 338.8156665 783.75930786 338.37255859 785.61791992 C319.53635617 862.81262521 283.02218633 937.20515293 231.5 997.9375 C230.6079764 998.99210587 229.71605474 1000.04679797 228.82421875 1001.1015625 C227.41413408 1002.7684052 226.00285469 1004.43414749 224.58740234 1006.09643555 C221.64294885 1009.5594383 218.7767645 1013.07466749 215.9375 1016.625 C212.24381725 1021.17107108 208.27580514 1025.29779505 204.0546875 1029.35546875 C202.06949588 1031.3619086 200.24161213 1033.37577116 198.41015625 1035.515625 C194.0327616 1040.56605589 189.31756243 1045.27014009 184.5847168 1049.9831543 C183.06508332 1051.4974258 181.55087483 1053.0169743 180.03710938 1054.53710938 C175.25060222 1059.32689198 170.41529831 1064.00917848 165.26782227 1068.41479492 C162.49882084 1070.79986078 159.85253289 1073.31274373 157.1875 1075.8125 C152.39485085 1080.2712948 147.47810172 1084.49870791 142.37109375 1088.59765625 C139.67363883 1090.79599026 137.03698374 1093.04789426 134.40893555 1095.32788086 C127.31077145 1101.4837678 120.04861391 1107.34118402 112.5 1112.9375 C111.51870117 1113.66573975 111.51870117 1113.66573975 110.51757812 1114.40869141 C85.00686235 1133.25642666 58.09244258 1150.08412785 30.94067383 1166.44458008 C28.6607888 1167.83914814 26.4189025 1169.2817648 24.17578125 1170.734375 C19.19488375 1173.85089664 14.21866426 1174.80941686 8.5 1175.9375 C7.27667969 1176.29457031 6.05335938 1176.65164063 4.79296875 1177.01953125 C-6.14464251 1179.77350891 -13.3454851 1176.37826191 -22.84716797 1170.86376953 C-26.08319672 1168.91708411 -29.29093804 1166.92827644 -32.5 1164.9375 C-34.87109097 1163.50557666 -37.2501561 1162.08712165 -39.62890625 1160.66796875 C-45.56677544 1157.11424969 -51.46612985 1153.50101962 -57.35644531 1149.86914062 C-60.13256472 1148.16328036 -62.91763703 1146.47439429 -65.7109375 1144.796875 C-74.86620274 1139.29144107 -83.75383242 1133.50117534 -92.48925781 1127.35107422 C-94.54719006 1125.90432486 -96.61282859 1124.46911747 -98.6796875 1123.03515625 C-114.4936253 1112.02213793 -129.65756232 1100.22304716 -144.5 1087.9375 C-145.08265625 1087.45539063 -145.6653125 1086.97328125 -146.265625 1086.4765625 C-153.20414565 1080.71568067 -159.94720085 1074.78261419 -166.55078125 1068.640625 C-168.05701367 1067.24251386 -169.57429122 1065.8743132 -171.13989258 1064.54272461 C-177.65595492 1059.00021724 -183.64753421 1052.94084847 -189.68188477 1046.88598633 C-191.55829475 1045.00421726 -193.43998969 1043.12785262 -195.32226562 1041.25195312 C-201.26256282 1035.3149014 -207.0688164 1029.35001895 -212.5 1022.9375 C-213.9132355 1021.3926874 -215.32940409 1019.85054675 -216.75 1018.3125 C-221.2992233 1013.27063661 -225.4690272 1007.98567302 -229.625 1002.62109375 C-231.51042835 1000.19045809 -233.42479527 997.78911533 -235.375 995.41015625 C-289.82691607 928.88008015 -325.81996705 846.48934595 -352.8125 707.8125 C-352.93460342 706.77240784 -352.93460342 706.77240784 -353.05917358 705.71130371 C-355.18472623 687.33647853 -355.74079053 669.16918424 -355.75 650.6875 C-355.75067474 649.46818787 -355.75134949 648.24887573 -355.75204468 646.99261475 C-355.73436895 626.81552648 -355.02879398 606.95814698 -352.5 586.9375 C-352.37271515 585.92698578 -352.37271515 585.92698578 -352.24285889 584.89605713 C-342.15843395 505.6606208 -315.49422671 431.15418132 -280.39251709 359.75506592 C-279.50102093 357.93957907 -278.61268066 356.12257854 -277.72509766 354.30517578 C-270.33408613 339.18539007 -262.55231076 324.39017332 -254.14306641 309.81347656 C-252.44748785 306.84558423 -250.78749982 303.86021023 -249.13671875 300.8671875 C-236.56353031 278.07402363 -222.80057653 256.2152286 -208.375 234.5625 C-207.79216248 233.68715607 -207.20932495 232.81181213 -206.60882568 231.90994263 C-195.81499687 215.72147859 -184.86147198 199.61668912 -173.25 184 C-172.67338623 183.22116455 -172.09677246 182.4423291 -171.50268555 181.63989258 C-166.5811985 175.00973637 -161.57962491 168.44731056 -156.5 161.9375 C-156.07686523 161.39351562 -155.65373047 160.84953125 -155.21777344 160.2890625 C-145.52248258 147.83086492 -135.62545765 135.5346439 -125.3828125 123.52148438 C-122.53615846 120.17957912 -119.75419148 116.79332276 -117 113.375 C-112.87309794 108.30142507 -108.49897442 103.50008858 -104.0546875 98.70703125 C-101.99886278 96.47831607 -99.98383043 94.22982081 -98 91.9375 C-93.76044243 87.05344912 -89.37013338 82.30824871 -84.98681641 77.55371094 C-83.49091467 75.927624 -82.00081201 74.29638449 -80.51171875 72.6640625 C-74.87803882 66.50376789 -69.14500656 60.49673895 -63.16796875 54.66796875 C-61.11890491 52.57090341 -59.20433942 50.46213186 -57.296875 48.2421875 C-52.94713505 43.22461822 -48.26672363 38.55804933 -43.5625 33.875 C-42.27956055 32.58625977 -42.27956055 32.58625977 -40.97070312 31.27148438 C-36.55841725 26.86592968 -32.07616212 22.6283727 -27.34692383 18.56616211 C-24.36126807 15.93333863 -21.59204683 13.09709353 -18.8125 10.25 C-16.73209178 8.12011715 -14.63178461 6.015937 -12.5 3.9375 C-11.69949219 3.14601563 -10.89898438 2.35453125 -10.07421875 1.5390625 C-6.51984652 -0.67230717 -4.13008323 -0.35931724 0 0 Z " fill="#654B56" transform="translate(1088.5,21.0625)"/>
<path d="M0 0 C19.63566093 17.04227175 25.08099638 42.72647134 26.96484375 67.5625 C31.46474683 138.30813535 5.53458599 207.29883972 -24.72265625 269.9765625 C-25.47844971 271.54591553 -25.47844971 271.54591553 -26.24951172 273.14697266 C-32.98672736 287.06207441 -40.23230607 300.63030365 -47.99658203 313.99853516 C-49.74093197 317.00809393 -51.46399858 320.02924529 -53.1875 323.05078125 C-61.31084263 337.14774473 -70.06535799 350.75923429 -79.09765625 364.2890625 C-79.92564224 365.52994629 -79.92564224 365.52994629 -80.77035522 366.79589844 C-86.96452546 376.06186182 -93.25654607 385.24318944 -99.78369141 394.27807617 C-102.96883818 398.71089251 -104.10141301 400.64382539 -103.32421875 406.18359375 C-100.91563081 417.36632346 -96.88576566 428.61702664 -87.28515625 435.4140625 C-76.67817321 441.77472841 -65.13464988 440.92032284 -53.4296875 438.1328125 C-41.31422801 434.3539126 -31.41554294 427.9925327 -22.21875 419.34814453 C-20.74861857 418.00036411 -19.20420776 416.73507592 -17.66015625 415.47265625 C-12.60597175 411.26279634 -12.60597175 411.26279634 -10.33203125 405.3515625 C-10.56403969 402.48720825 -10.56403969 402.48720825 -11.140625 399.48046875 C-16.92521488 364.65646125 -5.23134044 323.75092182 14.57080078 295.10546875 C32.6528222 270.08814918 57.88120943 252.52003802 88.45727539 246.80322266 C109.45433729 243.55684372 132.3520727 244.67983448 151.27734375 254.9765625 C152.24929688 255.47929688 153.22125 255.98203125 154.22265625 256.5 C177.85180819 269.37214671 192.58175089 293.85271522 200.27734375 318.9765625 C202.57588548 327.26749966 204.55996165 335.33975941 204.27734375 343.9765625 C205.02306641 343.86062744 205.76878906 343.74469238 206.53710938 343.62524414 C209.95033385 343.09530449 213.36383527 342.56716954 216.77734375 342.0390625 C217.95039062 341.85666016 219.1234375 341.67425781 220.33203125 341.48632812 C226.30596806 340.56338845 232.27373167 339.68243273 238.27734375 338.9765625 C238.41269531 338.4403125 238.54804687 337.9040625 238.6875 337.3515625 C247.31855561 305.92831813 268.1787816 277.51280693 296.24755859 260.80371094 C320.52237225 247.11206919 350.22558709 241.79267451 377.4375 248.7890625 C394.46488203 254.06205822 407.82438834 264.29984809 416.33886719 280.03222656 C425.97835929 300.00332831 425.78082518 324.53879165 419.2109375 345.35546875 C409.44210065 372.66307539 388.29452182 391.56303278 362.70849609 403.85888672 C345.58122762 411.73282075 326.14209985 419.90351238 307.27734375 421.9765625 C315.90370481 434.55667238 325.70849127 440.95862189 340.6015625 444.2109375 C370.98006616 449.83779797 401.07430832 436.96882636 425.89453125 420.33203125 C430.91298859 416.88057345 435.88598098 413.29017011 440.54663086 409.36621094 C442.27734375 407.9765625 442.27734375 407.9765625 444.61938477 406.45410156 C448.63275779 403.55597436 450.91849713 401.44286787 452.11889648 396.5378418 C452.41464218 393.04786978 452.57198669 389.62965428 452.58145142 386.13082886 C452.5958848 382.21087939 452.76085068 378.29596062 452.90234375 374.37890625 C452.93954277 373.18839409 452.93954277 373.18839409 452.97749329 371.97383118 C453.88039275 345.42722805 459.55151517 318.72497949 466.27734375 293.1015625 C466.59735352 291.87179687 466.91736328 290.64203125 467.24707031 289.375 C470.64529628 276.81082246 474.52579539 265.01458293 484.27734375 255.9765625 C484.99921875 255.2959375 485.72109375 254.6153125 486.46484375 253.9140625 C498.43144412 245.67040447 515.16461062 244.22559229 529.21484375 246.6640625 C533.35080156 247.71494107 535.62655153 249.58023496 538.27734375 252.9765625 C542.53616456 265.75302493 535.32739628 283.48252301 532.27734375 295.9765625 C522.72479514 329.57714847 522.72479514 329.57714847 519.27734375 363.9765625 C519.53837891 363.36361328 519.79941406 362.75066406 520.06835938 362.11914062 C533.65312515 330.31032829 548.86727085 300.96099006 573.27734375 275.9765625 C574.2828125 274.87828125 574.2828125 274.87828125 575.30859375 273.7578125 C589.82267661 258.25972402 611.46912825 246.52579251 632.83984375 245.7265625 C643.56469333 245.85795423 653.14047793 247.96200301 660.90234375 255.5390625 C669.90473119 267.18408625 668.96581518 283.1343327 667.203125 296.94140625 C665.16636775 311.04601178 662.13201095 325.01983792 659.27734375 338.9765625 C659.07183899 339.98194061 659.07183899 339.98194061 658.86218262 341.00762939 C657.36205102 348.33657452 655.83718373 355.66009204 654.27734375 362.9765625 C654.54248779 362.36997803 654.80763184 361.76339355 655.08081055 361.13842773 C674.46269469 317.10070547 701.45026686 271.4437295 747.27734375 250.9765625 C762.0176385 245.43292991 776.12251194 244.18416342 791.27734375 248.9765625 C794.43585824 250.58590083 796.80079562 252.45383166 799.27734375 254.9765625 C799.84066406 255.52957031 800.40398438 256.08257813 800.984375 256.65234375 C808.47823304 265.16726274 808.67814196 277.17788745 808.27734375 287.9765625 C808.01585832 291.70120957 807.61021826 295.39627283 807.15234375 299.1015625 C806.95439209 300.70765381 806.95439209 300.70765381 806.75244141 302.34619141 C803.64428312 326.34637077 798.54563595 350.05421622 793.43701172 373.69287109 C788.46709589 396.22123398 788.46709589 396.22123398 786.83984375 419.1640625 C786.81986328 420.01291016 786.79988281 420.86175781 786.77929688 421.73632812 C786.78377948 427.55026123 787.87429381 432.17522967 791.27734375 436.9765625 C795.59140499 440.04433938 799.06072002 440.5851686 804.27734375 439.9765625 C816.9171482 436.53524588 826.41137218 427.31978791 835.34179688 418.19335938 C836.7967277 416.70675658 838.26254075 415.23157333 839.73046875 413.7578125 C842.2743055 411.18928982 844.81326261 408.62231182 847.27734375 405.9765625 C847.8506543 405.36482178 848.42396484 404.75308105 849.01464844 404.12280273 C850.83498789 401.02871842 850.90703695 398.28178682 851.19921875 394.71484375 C851.33458261 393.20894298 851.47042948 391.70308557 851.60668945 390.19726562 C851.67441559 389.3994165 851.74214172 388.60156738 851.81192017 387.77954102 C854.58474665 355.72332578 860.37354842 324.14875823 868.27734375 292.9765625 C868.53370605 291.92903809 868.79006836 290.88151367 869.05419922 289.80224609 C876.49502708 259.42411022 876.49502708 259.42411022 887.17578125 251.23828125 C898.33190302 244.54046093 913.74114454 244.48966428 926.09375 247.35546875 C932.38570891 249.14513148 935.47431191 251.86963402 939.27734375 256.9765625 C943.68518252 265.79224004 939.57277267 281.56109605 937.96484375 290.6015625 C937.7057451 292.11431405 937.44679909 293.62709175 937.18798828 295.13989258 C934.25950265 311.9668352 930.75243976 328.69045365 927.23706055 345.40283203 C915.70481862 390.16345428 915.70481862 390.16345428 922.96484375 434.3125 C925.48716229 437.51043958 928.36227852 438.99779619 932.27734375 439.9765625 C941.28731528 440.81572651 947.86422484 436.54212877 954.63671875 431.0703125 C957.2577571 428.77476257 959.77021839 426.39627066 962.27734375 423.9765625 C963.16220459 423.13834961 963.16220459 423.13834961 964.06494141 422.28320312 C966.00255544 420.44367741 967.92310536 418.5878138 969.83984375 416.7265625 C970.77038574 415.84097656 970.77038574 415.84097656 971.71972656 414.9375 C974.96276203 411.73611156 977.01576528 409.69874227 977.27734375 404.9765625 C977.40692634 403.5050373 977.5386952 402.033704 977.671875 400.5625 C977.73777832 399.72928223 977.80368164 398.89606445 977.87158203 398.03759766 C980.55777438 364.98000453 991.68435806 333.84070615 1011.27734375 306.9765625 C1011.89681885 306.11587158 1011.89681885 306.11587158 1012.52880859 305.23779297 C1035.0158394 274.29961149 1066.68693418 252.14607669 1104.5625 245.390625 C1109.45483121 244.84531784 1114.29532002 244.71388887 1119.21484375 244.6640625 C1120.16552734 244.63505859 1121.11621094 244.60605469 1122.09570312 244.57617188 C1128.2918567 244.52065844 1133.22128244 245.17765858 1138.27734375 248.9765625 C1140.08203125 251.34375 1140.08203125 251.34375 1141.15234375 253.8515625 C1141.53519531 254.72296875 1141.91804688 255.594375 1142.3125 256.4921875 C1143.40111208 259.29525342 1144.44089583 262.08701513 1145.27734375 264.9765625 C1146.13473145 264.81575195 1146.99211914 264.65494141 1147.87548828 264.48925781 C1153.61446776 263.62433339 1159.35832771 263.75048001 1165.15234375 263.7265625 C1166.39371094 263.7059375 1167.63507813 263.6853125 1168.9140625 263.6640625 C1176.79797468 263.63047821 1183.11532466 263.90981159 1189.65234375 268.7265625 C1196.65260109 278.41922651 1193.48094492 294.75164808 1191.70321655 305.79289246 C1191.47035633 307.19009386 1191.23724528 308.58725348 1191.00390625 309.984375 C1190.76085011 311.49728848 1190.5189083 313.01038134 1190.27798462 314.52363586 C1189.63341346 318.55296304 1188.97378901 322.57968724 1188.31123352 326.60609055 C1187.62217069 330.81147079 1186.94807861 335.01924937 1186.27246094 339.22680664 C1184.89188378 347.80957378 1183.49555453 356.38971517 1182.09460449 364.96917725 C1181.30322655 369.81582079 1180.51473656 374.66292976 1179.72753906 379.51025391 C1179.54168275 380.65466194 1179.54168275 380.65466194 1179.35207176 381.82218933 C1178.74944375 385.53406969 1178.14748347 389.24605734 1177.54641724 392.95819092 C1177.43189398 393.66544312 1177.31737072 394.37269531 1177.19937706 395.10137939 C1176.97276259 396.50094925 1176.74619055 397.90052597 1176.51966286 399.30010986 C1175.76106897 403.98317884 1174.99424255 408.6648437 1174.22509766 413.34619141 C1173.83096313 415.76333143 1173.43691494 418.18048553 1173.04296875 420.59765625 C1172.86230865 421.68677811 1172.68164856 422.77589996 1172.49551392 423.89802551 C1172.33360565 424.89645981 1172.17169739 425.8948941 1172.00488281 426.92358398 C1171.79270111 428.21521706 1171.79270111 428.21521706 1171.57623291 429.53294373 C1171.26970283 432.0390321 1171.2248368 434.45441426 1171.27734375 436.9765625 C1171.85097656 436.48929688 1172.42460938 436.00203125 1173.015625 435.5 C1182.12272226 427.89923597 1191.68669225 420.94935279 1201.27734375 413.9765625 C1202.07221191 413.3976123 1202.86708008 412.81866211 1203.68603516 412.22216797 C1211.34399687 406.64856564 1219.02488339 401.10571444 1226.77734375 395.6640625 C1227.79828125 394.94605469 1228.81921875 394.22804688 1229.87109375 393.48828125 C1232.27734375 391.9765625 1232.27734375 391.9765625 1234.27734375 391.9765625 C1234.24253906 390.68298828 1234.24253906 390.68298828 1234.20703125 389.36328125 C1233.59852303 348.20204656 1246.9492304 310.10160841 1275.27734375 279.9765625 C1276.06625 279.09097656 1276.06625 279.09097656 1276.87109375 278.1875 C1296.03846262 257.55324065 1324.86091188 246.94500271 1352.52734375 245.84765625 C1373.5793516 245.49522308 1393.11597357 250.23817961 1408.63671875 265.09375 C1424.07540686 281.94841246 1426.98656325 301.99397239 1426.41357422 324.16259766 C1425.29512124 347.26526618 1413.16827449 367.89115523 1396.86328125 383.6953125 C1372.62423525 405.0783984 1340.79963998 414.47129489 1310.27734375 422.9765625 C1311.51164544 424.74381519 1312.75576052 426.50421627 1314.00390625 428.26171875 C1315.041521 429.73330444 1315.041521 429.73330444 1316.10009766 431.23461914 C1322.22849039 438.95249072 1332.63261681 443.56057766 1342.27734375 444.9765625 C1361.35002414 446.23885431 1378.50081963 444.09078114 1393.55859375 431.2421875 C1402.32347577 423.47136669 1410.26127604 414.89622112 1417.46484375 405.6640625 C1422.44271706 399.40189788 1426.79730496 394.37175617 1435.0078125 393.04296875 C1438.97228779 392.92696861 1442.01392481 393.69430219 1445.27734375 395.9765625 C1453.45427231 405.57380123 1451.8570175 418.12323385 1451.27734375 429.9765625 C1449.64238191 444.03123446 1441.56304398 455.71019426 1432.27734375 465.9765625 C1431.13652344 467.24113281 1431.13652344 467.24113281 1429.97265625 468.53125 C1416.04844745 483.18590909 1397.95913372 493.34686872 1378.27734375 497.9765625 C1377.64828125 498.12464355 1377.01921875 498.27272461 1376.37109375 498.42529297 C1344.98118148 505.43520367 1309.22799001 502.44064181 1281.27734375 485.9765625 C1266.27138019 475.97818812 1253.59550934 462.60875702 1246.27734375 445.9765625 C1241.87983822 447.47253635 1238.41143634 449.86328867 1234.71484375 452.6015625 C1233.46202973 453.51322159 1232.20810613 454.42335769 1230.953125 455.33203125 C1230.33131348 455.78239746 1229.70950195 456.23276367 1229.06884766 456.69677734 C1225.64485105 459.14275584 1222.12269873 461.43926304 1218.60986328 463.75463867 C1215.07734671 466.09833106 1211.58955097 468.50481346 1208.1015625 470.9140625 C1198.76294936 477.34879884 1189.36566699 483.69572069 1179.96484375 490.0390625 C1178.2805589 491.17637296 1176.59631393 492.3137425 1174.91210938 493.45117188 C1171.86180594 495.5108444 1168.81142826 497.57040638 1165.76049805 499.62915039 C1165.15811813 500.03565323 1164.55573822 500.44215607 1163.93510437 500.86097717 C1162.38542053 501.90383254 1160.83153426 502.94043549 1159.27734375 503.9765625 C1158.53325279 505.81435251 1158.53325279 505.81435251 1158.17749023 507.9909668 C1158.00937836 508.82743744 1157.84126648 509.66390808 1157.6680603 510.52572632 C1157.49658478 511.44149445 1157.32510925 512.35726257 1157.1484375 513.30078125 C1156.75467665 515.27971133 1156.36087607 517.25863351 1155.96704102 519.23754883 C1155.76345978 520.28472076 1155.55987854 521.3318927 1155.35012817 522.41079712 C1154.27500767 527.91644494 1153.14952773 533.4116393 1152.01953125 538.90625 C1151.79102982 540.01750748 1151.56252838 541.12876495 1151.32710266 542.2736969 C1138.4482229 604.32079627 1119.46371645 691.52785572 1064.28515625 730.06640625 C1046.09812351 741.77676187 1025.26062978 746.19260857 1003.8359375 742.2890625 C988.22499054 738.44636786 974.89074853 729.74769469 966.27734375 715.9765625 C955.06115873 696.81290923 955.61065663 674.30496678 960.80102539 653.296875 C968.67055655 623.74859073 986.06425682 597.50804608 1006.27734375 574.9765625 C1007.11265625 574.03039063 1007.94796875 573.08421875 1008.80859375 572.109375 C1014.65772572 565.5922866 1020.78631656 559.36757747 1026.96484375 553.1640625 C1027.76092041 552.36331299 1028.55699707 551.56256348 1029.37719727 550.73754883 C1033.62324289 546.50297543 1037.94714702 542.42700675 1042.49291992 538.51586914 C1044.90887304 536.43178317 1047.24633608 534.26648249 1049.58984375 532.1015625 C1054.07531927 528.0109569 1058.68314919 524.12838407 1063.40625 520.31640625 C1065.95599165 518.23845354 1068.46653948 516.12511592 1070.96679688 513.98852539 C1076.1155795 509.58867068 1081.32875071 505.28872235 1086.65234375 501.1015625 C1087.21091064 500.66150879 1087.76947754 500.22145508 1088.3449707 499.76806641 C1088.88726318 499.34444824 1089.42955566 498.92083008 1089.98828125 498.484375 C1090.52090576 498.06470459 1091.05353027 497.64503418 1091.60229492 497.21264648 C1093.27734375 495.9765625 1093.27734375 495.9765625 1095.1965332 494.82055664 C1098.94764925 492.50489267 1100.08783093 491.61377461 1101.3984375 487.20703125 C1101.53619132 485.86229153 1101.6412199 484.51383306 1101.71484375 483.1640625 C1101.77865234 482.47119141 1101.84246094 481.77832031 1101.90820312 481.06445312 C1102.06004566 479.37082486 1102.17273641 477.67376319 1102.27734375 475.9765625 C1101.57351563 476.75 1100.8696875 477.5234375 1100.14453125 478.3203125 C1086.91394398 492.44384513 1071.09618066 500.5189995 1051.40234375 501.2265625 C1031.84562245 500.98445728 1015.20536368 494.60403594 1000.96484375 481.0390625 C997.13849099 477.07070077 994.14539785 472.66974193 991.27734375 467.9765625 C987.04177464 469.72994024 983.82799912 472.70648253 980.33984375 475.6015625 C958.88169516 493.02589166 935.26720633 503.5556478 907.27734375 500.9765625 C892.49605152 498.88880936 880.37397825 493.15820847 870.27734375 481.9765625 C867.91521529 478.74027547 865.91320308 475.34046768 863.93359375 471.859375 C862.51995998 469.39885206 861.03614181 467.19650883 859.27734375 464.9765625 C858.75269531 465.48703125 858.22804688 465.9975 857.6875 466.5234375 C832.53884095 490.123843 803.89595638 501.86178692 769.375 501.28515625 C754.67578876 500.74040615 742.69264756 495.88921283 732.40234375 485.2265625 C718.6571755 469.02689992 718.0773062 447.16093041 719.27734375 426.9765625 C721.26516335 407.3243128 725.29636125 387.82060921 728.95336914 368.42700195 C729.17353447 367.2586808 729.17353447 367.2586808 729.39814758 366.0667572 C729.67201577 364.61777548 729.94735494 363.16907059 730.22453308 361.72071838 C731.86726868 353.09770488 731.86726868 353.09770488 732.375 344.35546875 C732.37177734 343.56591797 732.36855469 342.77636719 732.36523438 341.96289062 C732.35685547 341.16302734 732.34847656 340.36316406 732.33984375 339.5390625 C732.33307617 338.29866211 732.33307617 338.29866211 732.32617188 337.03320312 C732.31450186 335.01429104 732.29657093 332.99541676 732.27734375 330.9765625 C727.25470804 330.60474378 727.25470804 330.60474378 722.72265625 332.5234375 C688.59441339 364.92803173 673.16378177 416.89450983 661.52734375 460.9765625 C653.71167458 490.55359304 653.71167458 490.55359304 641.5 497.96875 C632.66111261 501.97654077 620.17762078 502.92008359 610.77734375 499.9765625 C600.66079754 495.02013382 595.07425175 486.25294882 591.27734375 475.9765625 C580.45839727 442.48445498 588.38847745 405.35018264 592.56323242 371.25317383 C594.60834419 355.69278834 594.60834419 355.69278834 595.46484375 340.0390625 C595.48611328 338.72615234 595.48611328 338.72615234 595.5078125 337.38671875 C595.26156864 334.81159231 594.5777302 333.19184534 593.27734375 330.9765625 C587.58695535 331.09511226 584.52707786 332.62624247 580.42578125 336.5546875 C551.193068 369.50792789 538.42529948 419.31071049 527.85131836 461.11499023 C520.44243039 490.01225993 520.44243039 490.01225993 509.23046875 497.30859375 C500.35564041 502.02960206 488.91311251 502.51820575 479.18359375 500.2578125 C474.1912351 498.39319662 470.72226715 496.13073483 467.27734375 491.9765625 C466.59671875 491.2134375 465.91609375 490.4503125 465.21484375 489.6640625 C459.77539187 482.11901634 457.61867158 473.84371896 455.27734375 464.9765625 C454.40335938 465.58242187 453.529375 466.18828125 452.62890625 466.8125 C413.21768806 493.80268572 368.93092644 507.5485485 320.96582031 499.38500977 C318.72525863 498.95554493 316.50186744 498.48229445 314.27734375 497.9765625 C313.54563965 497.81027344 312.81393555 497.64398437 312.06005859 497.47265625 C287.08057592 491.50806609 263.34337548 476.73709703 249.27734375 454.9140625 C238.52061564 437.38583814 233.99696023 419.119413 231.27734375 398.9765625 C230.29636719 399.1209375 229.31539062 399.2653125 228.3046875 399.4140625 C218.88392695 400.73268692 209.7910958 401.22260781 200.27734375 400.9765625 C200.14779297 401.79833984 200.14779297 401.79833984 200.015625 402.63671875 C195.51139594 428.05048819 182.99108574 450.47624227 165.27734375 468.9765625 C164.23513672 470.11351562 164.23513672 470.11351562 163.171875 471.2734375 C146.4442473 488.94561248 121.42433735 500.54951615 97.078125 501.27734375 C94.91544871 501.29681543 92.75257849 501.30030166 90.58984375 501.2890625 C88.87692139 501.28060303 88.87692139 501.28060303 87.12939453 501.27197266 C60.92529863 500.8973635 38.04311607 491.36787878 19.27734375 472.9765625 C10.27734375 463.40663361 10.27734375 463.40663361 10.27734375 459.9765625 C9.65730469 460.48703125 9.03726563 460.9975 8.3984375 461.5234375 C5.93789247 463.54344827 3.47029515 465.55458599 1.00146484 467.56445312 C-0.76281162 469.00945101 -2.51428771 470.46904643 -4.265625 471.9296875 C-31.09779534 494.11123407 -61.09043207 504.03390985 -96.05224609 500.75830078 C-115.62338938 498.03223456 -133.09355398 486.9907157 -144.93505859 471.42578125 C-154.08551367 458.86454234 -159.93736938 444.67313308 -164.72265625 429.9765625 C-165.0781958 428.88504883 -165.0781958 428.88504883 -165.44091797 427.77148438 C-178.97008409 385.16571641 -177.57843453 338.03235033 -173.72265625 293.9765625 C-173.63497986 292.96704529 -173.63497986 292.96704529 -173.54553223 291.93713379 C-167.18564517 219.75991047 -152.87940121 145.25078644 -122.72265625 78.9765625 C-122.24183594 77.91469727 -121.76101563 76.85283203 -121.265625 75.75878906 C-105.99818199 42.31342084 -87.06319931 8.9895045 -51.72265625 -6.0234375 C-34.75332915 -11.9742672 -14.58106286 -11.10713054 0 0 Z M-49.72265625 49.9765625 C-96.99018541 110.44965413 -103.44709008 224.90216376 -108.72265625 324.9765625 C-105.82314193 321.51789573 -103.50079066 318.04438138 -101.32421875 314.09375 C-100.36866089 312.36415039 -100.36866089 312.36415039 -99.39379883 310.59960938 C-98.71120613 309.35055819 -98.02917322 308.10120095 -97.34765625 306.8515625 C-96.99706146 306.21130127 -96.64646667 305.57104004 -96.2852478 304.91137695 C-93.74754622 300.27548524 -91.22964138 295.62912836 -88.72265625 290.9765625 C-88.24164459 290.08475281 -88.24164459 290.08475281 -87.75091553 289.17492676 C-58.98343101 235.75739451 -35.63715646 177.44266958 -27.72265625 116.9765625 C-27.61953125 116.23559326 -27.51640625 115.49462402 -27.41015625 114.73120117 C-26.42598788 106.61620574 -26.50084919 98.43621587 -26.48242188 90.27368164 C-26.47271655 87.68017487 -26.4416113 85.08746244 -26.41015625 82.49414062 C-26.18962055 63.44858504 -26.18962055 63.44858504 -34.72265625 46.9765625 C-40.62295868 43.24815053 -45.07513794 45.50516067 -49.72265625 49.9765625 Z M1088.27734375 311.9765625 C1087.46523437 312.64429688 1086.653125 313.31203125 1085.81640625 314 C1063.6994604 332.85044308 1049.85570317 365.3946549 1046.5234375 393.9765625 C1046.11606359 399.55146698 1046.02902263 405.1389382 1045.96484375 410.7265625 C1045.94695801 411.78069336 1045.92907227 412.83482422 1045.91064453 413.92089844 C1045.92228305 424.48534461 1047.6840607 432.4352614 1055.18359375 440.125 C1060.65254298 444.96134689 1066.22299091 445.59889603 1073.2890625 445.37890625 C1082.1930082 444.18007435 1088.7882446 437.69631377 1094.27734375 430.9765625 C1105.9420195 414.22728451 1109.49144647 394.55582266 1113.08984375 374.8515625 C1113.51238275 372.58906344 1113.93606828 370.32677824 1114.36083984 368.06469727 C1115.23591083 363.39442518 1116.10386375 358.72291268 1116.96630859 354.05029297 C1118.26329254 347.03330829 1119.58984958 340.02212326 1120.921875 333.01171875 C1121.74940469 328.64596703 1122.57594001 324.28002747 1123.40234375 319.9140625 C1123.60042633 318.86933777 1123.79850891 317.82461304 1124.00259399 316.74822998 C1124.5580077 313.81315757 1125.10967708 310.8774076 1125.66015625 307.94140625 C1125.90781487 306.63732567 1125.90781487 306.63732567 1126.16047668 305.30690002 C1126.74843259 302.15546355 1127.27734375 299.19009659 1127.27734375 295.9765625 C1112.40573203 295.58174095 1099.31616035 302.49800267 1088.27734375 311.9765625 Z M316 315.66015625 C302.2371226 334.16670115 297.23194117 356.29713436 298.27734375 378.9765625 C318.54034719 374.63833969 337.39675343 366.83131846 352.27734375 351.9765625 C352.93734375 351.32816406 353.59734375 350.67976563 354.27734375 350.01171875 C362.381534 341.47088032 365.66740682 331.35964455 365.48046875 319.75390625 C365.01355352 313.3697384 363.16819444 309.47217136 358.46484375 305.1015625 C353.49515054 301.12761838 349.00738984 299.46641769 342.546875 299.6640625 C331.51283947 301.18337892 322.97716917 307.28437458 316 315.66015625 Z M1319 315.66015625 C1305.2371226 334.16670115 1300.23194117 356.29713436 1301.27734375 378.9765625 C1321.54034719 374.63833969 1340.39675343 366.83131846 1355.27734375 351.9765625 C1355.93734375 351.32816406 1356.59734375 350.67976563 1357.27734375 350.01171875 C1365.381534 341.47088032 1368.66740682 331.35964455 1368.48046875 319.75390625 C1368.01355352 313.3697384 1366.16819444 309.47217136 1361.46484375 305.1015625 C1356.49515054 301.12761838 1352.00738984 299.46641769 1345.546875 299.6640625 C1334.51283947 301.18337892 1325.97716917 307.28437458 1319 315.66015625 Z M75.25390625 318.6015625 C67.73246006 327.63918955 63.22144416 337.69084427 60.27734375 348.9765625 C59.95765625 350.17796875 59.63796875 351.379375 59.30859375 352.6171875 C57.20919767 362.21998068 56.96514645 371.80258536 56.90234375 381.6015625 C56.88840576 382.88740234 56.87446777 384.17324219 56.86010742 385.49804688 C56.91976479 397.65265529 58.23499683 409.72105569 64.15234375 420.5390625 C64.64154297 421.50682617 64.64154297 421.50682617 65.140625 422.49414062 C69.96258708 431.73467107 77.0327488 438.36518643 86.71484375 442.4140625 C97.13663075 444.05960782 106.63713454 443.05569568 115.7890625 437.43359375 C118.0891692 435.72706297 120.18698684 433.93323379 122.27734375 431.9765625 C122.880625 431.42613281 123.48390625 430.87570312 124.10546875 430.30859375 C133.47053629 420.75369376 139.25582405 406.04481189 141.27734375 392.9765625 C141.11935014 389.56982527 140.77107469 388.44142028 138.2734375 386.08984375 C137.00693359 385.19845703 137.00693359 385.19845703 135.71484375 384.2890625 C120.43594071 372.59624623 111.95609484 353.75840066 108.67431641 335.14697266 C107.93055981 329.20698305 108.0717939 323.26524171 108.15234375 317.2890625 C108.16136719 316.00322266 108.17039062 314.71738281 108.1796875 313.39257812 C108.20302485 310.25370518 108.23576342 307.11523774 108.27734375 303.9765625 C94.64417204 303.71688304 84.64916442 308.71969733 75.25390625 318.6015625 Z M517.27734375 366.9765625 C518.27734375 369.9765625 518.27734375 369.9765625 518.27734375 369.9765625 Z M1087.27734375 556.9765625 C1086.86073486 557.36811523 1086.44412598 557.75966797 1086.01489258 558.16308594 C1084.04042323 560.01816121 1082.0651373 561.87236488 1080.08984375 563.7265625 C1079.36531006 564.4074292 1078.64077637 565.0882959 1077.89428711 565.78979492 C1074.49483688 568.97973851 1071.08945127 572.16068215 1067.63671875 575.29296875 C1061.12096819 581.20560224 1055.01122897 587.29037117 1049.27734375 593.9765625 C1048.41625 594.94980469 1047.55515625 595.92304687 1046.66796875 596.92578125 C1028.93662318 617.14551512 1010.63180993 643.57936407 1011.0625 671.57421875 C1011.59072687 677.48075552 1013.01203392 682.42655796 1016.77734375 687.0390625 C1020.86413637 690.20632678 1024.20934926 690.47505376 1029.27734375 689.9765625 C1046.65304247 683.04043837 1056.19864699 659.41855529 1063.20410156 643.48779297 C1073.33352697 619.78641222 1079.86190747 594.41099541 1085.96484375 569.4140625 C1086.22088379 568.37403076 1086.47692383 567.33399902 1086.74072266 566.26245117 C1087.07402588 564.85056519 1087.07402588 564.85056519 1087.4140625 563.41015625 C1087.60701904 562.59603271 1087.79997559 561.78190918 1087.9987793 560.94311523 C1088.47765367 558.90365093 1088.47765367 558.90365093 1087.27734375 556.9765625 Z " fill="#654B56" transform="translate(701.72265625,1355.0234375)"/>
<path d="M0 0 C0 0.66 0 1.32 0 2 C-1.67520398 3.40053089 -3.41923092 4.71897712 -5.1875 6 C-6.29876187 6.81430672 -7.40941904 7.62943919 -8.51953125 8.4453125 C-9.38505615 9.07808105 -9.38505615 9.07808105 -10.26806641 9.72363281 C-14.67640229 12.97240361 -18.99201241 16.34552847 -23.3203125 19.69970703 C-24.44399242 20.56957902 -25.5690041 21.43773328 -26.6953125 22.30419922 C-45.96400569 37.135154 -65.07119843 53.22711994 -80.0546875 72.5 C-82.17795318 75.22869484 -84.42737052 77.82127295 -86.6875 80.4375 C-155.35074801 163.10932411 -164.78199992 269.22765068 -171.4453125 385.1015625 C-171.50896877 386.21699306 -171.57262505 387.33242363 -171.6382103 388.48165512 C-172.28207202 399.76632132 -172.92195433 411.05115743 -173.54079723 422.33722591 C-175.69074077 461.452126 -177.92668249 500.67637068 -182.8125 539.5625 C-182.99717331 541.06727402 -182.99717331 541.06727402 -183.18557739 542.60244751 C-187.06209171 574.07042474 -192.42117784 605.20740328 -200 636 C-200.28391602 637.17868652 -200.56783203 638.35737305 -200.86035156 639.57177734 C-208.81812345 672.32244956 -219.90667476 704.38832563 -234 735 C-234.45439453 736.0007959 -234.90878906 737.0015918 -235.37695312 738.03271484 C-247.58360709 764.82149032 -262.50236087 790.32248308 -280 814 C-280.46374023 814.63502441 -280.92748047 815.27004883 -281.40527344 815.92431641 C-290.95453227 828.99793429 -301.2893165 841.21841337 -312.30078125 853.078125 C-314.08593927 855.01053918 -315.8545788 856.95835823 -317.60546875 858.921875 C-324.43550052 866.54891196 -331.72839268 873.54569796 -339.29296875 880.44140625 C-340.76550397 881.78589493 -342.22752446 883.14188321 -343.6875 884.5 C-349.93731535 890.25640887 -356.55209972 895.4794628 -363.27685547 900.66210938 C-364.84399113 901.87887099 -366.39373513 903.11794956 -367.94140625 904.359375 C-386.0329656 918.71699068 -405.88264838 930.72967414 -426 942 C-427.17828369 942.66757324 -427.17828369 942.66757324 -428.38037109 943.34863281 C-498.06380085 982.586658 -579.30113141 998.48424582 -696 1009 C-696.8075473 1009.04163269 -697.6150946 1009.08326538 -698.44711304 1009.12615967 C-716.45070531 1010.04245091 -734.4299879 1010.156708 -752.45141602 1010.13037109 C-756.42553821 1010.12462043 -760.39959361 1010.12800583 -764.37371349 1010.13394356 C-767.49590036 1010.13758687 -770.6180718 1010.13639433 -773.74025917 1010.13381577 C-775.20517294 1010.13315971 -776.67008822 1010.13392728 -778.13500023 1010.13629532 C-787.47066945 1010.14810943 -796.6968738 1009.79686718 -806 1009 C-806 1008.34 -806 1007.68 -806 1007 C-804.90872803 1006.56768066 -803.81745605 1006.13536133 -802.69311523 1005.68994141 C-772.64180557 993.8334598 -772.64180557 993.8334598 -743 981 C-741.30568848 980.23187988 -741.30568848 980.23187988 -739.57714844 979.44824219 C-711.82898256 966.83406224 -685.00413423 952.91322702 -659 937 C-658.09217773 936.44538086 -657.18435547 935.89076172 -656.24902344 935.31933594 C-644.84696103 928.32035046 -633.80716853 920.88526851 -623 913 C-622.3287207 912.51031738 -621.65744141 912.02063477 -620.96582031 911.51611328 C-603.55299919 898.75316344 -585.8446517 885.32995506 -570.79296875 869.796875 C-568.91311635 867.91292706 -566.95412161 866.17371518 -564.9375 864.4375 C-559.15776972 859.44796722 -553.97491063 854.0628983 -549 848.27734375 C-547.08995593 846.10243029 -545.12665757 843.98538414 -543.14794922 841.87304688 C-537.19567133 835.49456676 -531.75638666 828.81975704 -526.45654297 821.89355469 C-524.95486968 819.94132907 -523.43417215 818.00513356 -521.91015625 816.0703125 C-509.75701362 800.54583244 -498.76505127 784.129325 -489 767 C-488.54947266 766.21641113 -488.09894531 765.43282227 -487.63476562 764.62548828 C-458.92406133 714.40092178 -445.29322975 659.03944825 -438.8125 601.9375 C-438.69400696 600.90680389 -438.69400696 600.90680389 -438.57312012 599.85528564 C-435.66453775 574.19055292 -434.60583801 548.37807261 -433.65170288 522.58193588 C-433.52944818 519.30030374 -433.40331105 516.0188244 -433.27736092 512.73733234 C-432.54464325 493.6183863 -431.87326029 474.4976857 -431.24609375 455.375 C-431.21529346 454.43653543 -431.18449318 453.49807087 -431.15275955 452.53116798 C-431.0905841 450.6366931 -431.02841152 448.74221811 -430.96624184 446.84774303 C-424.27956025 243.17204595 -424.27956025 243.17204595 -330 96 C-326.44944678 92.83055236 -322.78921034 89.87834247 -319 87 C-318.19755859 86.38294189 -318.19755859 86.38294189 -317.37890625 85.75341797 C-237.48848853 24.54485813 -137.182411 15.45602372 -35.37109375 3.98291016 C-34.51910621 3.88699428 -33.66711866 3.7910784 -32.78931332 3.69225597 C-28.74737818 3.23734047 -24.70531702 2.78361365 -20.66297913 2.33229065 C-19.21419975 2.16971579 -17.76542334 2.00711453 -16.31665039 1.84448242 C-15.06751358 1.70491623 -13.81837677 1.56535004 -12.53138733 1.42155457 C-10.07288942 1.12807472 -7.61829996 0.80069978 -5.16770935 0.44721985 C-2 0 -2 0 0 0 Z " fill="#654B56" transform="translate(1965,211)"/>
<path d="M0 0 C209.49381088 23.74412699 209.49381088 23.74412699 337 104 C337.61020996 104.58297852 338.22041992 105.16595703 338.84912109 105.76660156 C347.18725911 113.76627546 354.82121824 121.97549366 361.70263672 131.26269531 C362.98787142 132.98375856 364.3042016 134.676388 365.62890625 136.3671875 C422.64993893 210.21307333 424.47847901 307.03945273 429.97265625 445.57421875 C430.01496305 446.83815712 430.05726986 448.10209549 430.10085869 449.40433502 C430.52842013 462.18139454 430.95122303 474.95855085 431.35131454 487.73650265 C432.12434667 512.311044 433.03636965 536.86262567 434.51171875 561.40625 C434.57237015 562.42488695 434.63302155 563.4435239 434.69551086 564.49302864 C440.1465995 654.93679802 462.57940054 739.16037351 550.42578125 850.4296875 C552.21312444 852.2125956 553.85267648 854.08721375 555.5 856 C560.49548545 861.77429164 565.87017365 866.95979351 571.65625 871.93359375 C573.97754618 873.98020322 576.2329287 876.0883726 578.48535156 878.21020508 C585.10281937 884.42467344 592.01434897 890.07401259 599.20849609 895.60253906 C601.01155306 897.00901196 602.78415434 898.44653495 604.55078125 899.8984375 C613.60378526 907.32547595 623.04020179 914.00832623 632.77636719 920.50976562 C634.74868019 921.83157047 636.7088272 923.16875742 638.6640625 924.515625 C656.05555372 936.42344507 674.41309842 947.07461556 693 957 C694.00885254 957.54060059 695.01770508 958.08120117 696.05712891 958.63818359 C731.29595237 977.43050422 767.84892332 992.40803842 805 1007 C805 1007.66 805 1008.32 805 1009 C792.9037656 1009.07094141 780.80758421 1009.12351493 768.71118069 1009.15543652 C763.08838258 1009.17079227 757.46573119 1009.19144346 751.84301758 1009.22631836 C728.0542 1009.36973151 704.36657367 1009.19237316 680.62109375 1007.62890625 C679.68120543 1007.56710867 678.7413171 1007.50531109 677.77294731 1007.44164085 C600.41790126 1002.22627079 523.46190516 987.67994816 452.67431641 955.22412109 C450.28306639 954.12956864 447.88395618 953.05559628 445.48046875 951.98828125 C413.60242139 937.64801598 383.5743463 917.76188656 356.74707031 895.44287109 C355.21806108 894.18009237 353.66916952 892.94146681 352.1171875 891.70703125 C340.13950601 882.17851747 329.27176659 871.34980207 318.4375 860.5625 C317.33136353 859.4633728 317.33136353 859.4633728 316.20288086 858.34204102 C311.59795413 853.72348249 307.24176935 848.95257727 303 844 C302.154375 843.03578125 301.30875 842.0715625 300.4375 841.078125 C282.85478323 820.67766515 267.38801417 798.35960993 254 775 C253.61424805 774.33000977 253.22849609 773.66001953 252.83105469 772.96972656 C211.67307615 701.15021292 191.19553212 619.99749668 171.74987602 410.17765045 C171.55719279 406.78391859 171.3639594 403.39021836 171.17066956 399.996521 C170.59138852 389.81193704 170.01571677 379.6272204 169.4589262 369.44137955 C168.22469449 346.92600955 166.82413829 324.43783928 164.9609375 301.96484375 C164.88045166 300.98300928 164.79996582 300.00117481 164.71704102 298.98958778 C156.60067034 200.78699327 121.89700141 102.54174473 45 37 C41.00421465 33.73224006 36.92085454 30.57917064 32.83398438 27.42675781 C29.67236321 24.96715796 26.55791396 22.44901352 23.4375 19.9375 C11.97602085 10.62008357 11.97602085 10.62008357 0 2 C0 1.34 0 0.68 0 0 Z " fill="#654B56" transform="translate(213,211)"/>
<path d="M0 0 C0.87398438 0.67160156 1.74796875 1.34320313 2.6484375 2.03515625 C45.36296308 35.75392931 56.43510277 82.42575124 63.21623588 134.21393919 C63.72538801 138.08578451 64.24504045 141.9562217 64.7636261 145.82681274 C65.9710739 154.85120109 67.16636865 163.87717792 68.36038971 172.90335083 C70.17181806 186.59052461 71.99299539 200.27639832 73.82421875 213.9609375 C73.93017679 214.7531679 74.03613483 215.5453983 74.14530373 216.36163568 C77.27507424 239.74930038 80.55188079 263.11148542 84.03745675 286.44887972 C84.34806129 288.52852843 84.65788872 290.60829191 84.96768761 292.68806076 C93.77028743 351.68854699 104.43536704 410.20508175 123 467 C123.53512207 468.64427979 123.53512207 468.64427979 124.08105469 470.32177734 C143.30798904 528.90851554 172.11157636 584.73849841 211.57324219 632.26904297 C212.82857742 633.79202839 214.06073088 635.33405915 215.2890625 636.87890625 C229.08908025 654.219378 245.15703931 671.43182185 262.6171875 685.11328125 C264.88374607 686.90794976 267.00034044 688.79095079 269.125 690.75 C288.15683972 707.79444407 310.11925836 721.94704784 332 735 C332.85706543 735.51304687 333.71413086 736.02609375 334.59716797 736.5546875 C359.22762461 751.21113442 385.38417027 762.12245359 411.79571533 773.08428955 C415.12472976 774.46723856 418.45110924 775.85647493 421.77734375 777.24609375 C427.18253399 779.5031004 432.58991919 781.75474217 438 784 C438 784.99 438 785.98 438 787 C350.62050039 808.3234746 257.36112923 807.43145105 169 767 C168.14792969 766.60345215 167.29585938 766.2069043 166.41796875 765.79833984 C141.38383527 754.05517777 118.13240221 738.73665943 97.49609375 720.33300781 C96.1415841 719.12615033 94.77460902 717.9333193 93.40625 716.7421875 C82.32923263 706.99585079 72.13087563 696.59118747 63 685 C61.96552734 683.78376953 61.96552734 683.78376953 60.91015625 682.54296875 C3.16233581 614.56135734 -16.80631896 517.37403352 -55.82421875 362.45703125 C-56.06714346 361.47329277 -56.31006817 360.48955429 -56.56035423 359.47600555 C-58.9308532 349.87508032 -61.29846909 340.27346684 -63.65353489 330.66874313 C-64.73828397 326.24609438 -65.8254499 321.82404301 -66.9140625 317.40234375 C-67.12528936 316.54415543 -67.33651623 315.6859671 -67.55414391 314.80177307 C-70.64955056 302.24597965 -73.89205002 289.73459637 -77.21875 277.23828125 C-81.13642024 262.51876418 -84.70077175 247.75197234 -88.05084229 232.89135742 C-93.83575715 207.33199869 -100.22163351 182.02999393 -108 157 C-108.24300842 156.21701538 -108.48601685 155.43403076 -108.73638916 154.62731934 C-124.41930773 104.30151651 -144.67159883 54.91789135 -180 15 C-180.77085937 14.11828125 -181.54171875 13.2365625 -182.3359375 12.328125 C-190.86286136 2.69419699 -199.81802381 -6.12015021 -210 -14 C-210.5475293 -14.42394043 -211.09505859 -14.84788086 -211.65917969 -15.28466797 C-226.77722793 -26.90120307 -243.05877832 -36.31494332 -260 -45 C-260 -45.66 -260 -46.32 -260 -47 C-173.75206784 -54.77430618 -71.75081255 -56.60341879 0 0 Z " fill="#654B56" transform="translate(260,454)"/>
<path d="M0 0 C1.23884949 -0.00678772 2.47769897 -0.01357544 3.75408936 -0.02056885 C7.06808041 -0.03457592 10.38198856 -0.04271678 13.69600677 -0.04525757 C15.06419693 -0.04633907 16.43238673 -0.04807225 17.80057526 -0.05044556 C42.83340677 -0.0929049 67.67792044 0.9551233 92.6171875 3.203125 C92.6171875 3.863125 92.6171875 4.523125 92.6171875 5.203125 C91.18052734 5.89535156 91.18052734 5.89535156 89.71484375 6.6015625 C67.95205878 17.20500863 47.80123708 29.81076813 30.28125 46.65625 C28.156462 48.68757226 26.0132931 50.59221909 23.7421875 52.453125 C19.93622903 55.67426546 16.82467547 59.39933301 13.6171875 63.203125 C12.80378906 64.12867188 11.99039063 65.05421875 11.15234375 66.0078125 C-19.61474589 101.20873478 -38.47362669 144.37467584 -53.3828125 188.203125 C-53.75615723 189.29189941 -54.12950195 190.38067383 -54.51416016 191.50244141 C-65.71473786 224.40259443 -73.70778446 258.20227903 -81.66256714 291.99975586 C-85.91545314 310.06466095 -90.34048183 328.06833211 -95.0703125 346.015625 C-100.86533021 368.01910232 -106.30699629 390.09832107 -111.67002106 412.21017456 C-161.00465558 615.56367743 -161.00465558 615.56367743 -193.41650391 678.34423828 C-194.36854632 680.17568117 -195.30395052 682.01494086 -196.23828125 683.85546875 C-204.1486124 699.25232658 -213.47881756 713.76206193 -224.3828125 727.203125 C-225.52363281 728.63205078 -225.52363281 728.63205078 -226.6875 730.08984375 C-230.9897224 735.42668365 -235.44195064 740.59687133 -240.0625 745.66015625 C-241.68448902 747.43779068 -243.29281705 749.22794321 -244.890625 751.02734375 C-249.16276183 755.8155338 -253.43924864 760.35669712 -258.35546875 764.484375 C-260.57624124 766.36711083 -262.68931951 768.3444688 -264.8203125 770.328125 C-311.44692238 812.30637653 -373.29707244 836.8414068 -434.6953125 846.453125 C-435.65864502 846.60418701 -436.62197754 846.75524902 -437.61450195 846.91088867 C-440.86626878 847.38898657 -444.11993053 847.80742541 -447.3828125 848.203125 C-448.09539215 848.28999573 -448.8079718 848.37686646 -449.54214478 848.46636963 C-465.00365017 850.29363294 -480.38785616 850.60255288 -495.9453125 850.578125 C-497.1930545 850.57791351 -498.44079651 850.57770203 -499.72634888 850.57748413 C-535.6652328 850.51691572 -570.86997679 846.68182835 -605.3828125 836.203125 C-605.3828125 835.543125 -605.3828125 834.883125 -605.3828125 834.203125 C-604.23731934 833.72593018 -603.09182617 833.24873535 -601.91162109 832.75708008 C-589.62058193 827.63441178 -577.33833976 822.49102065 -565.06347656 817.32971191 C-562.64448069 816.31309475 -560.22469545 815.29838449 -557.8046875 814.28417969 C-523.40608148 799.84603528 -491.57312119 782.16365083 -461.3828125 760.203125 C-460.8043457 759.78514648 -460.22587891 759.36716797 -459.62988281 758.93652344 C-447.87694455 750.41727454 -436.46441539 741.23728886 -425.7890625 731.3984375 C-424.43374782 730.16193287 -423.06978377 728.93429595 -421.67797852 727.73901367 C-415.96548479 722.8328717 -410.63141572 717.60074225 -405.3203125 712.265625 C-404.46115234 711.41033203 -403.60199219 710.55503906 -402.71679688 709.67382812 C-397.73007132 704.67948343 -392.95285612 699.58037151 -388.3828125 694.203125 C-387.47008512 693.14710686 -386.55732669 692.09111556 -385.64453125 691.03515625 C-379.31134034 683.60639058 -373.21506745 676.03292727 -367.3828125 668.203125 C-366.88523437 667.53684082 -366.38765625 666.87055664 -365.875 666.18408203 C-314.38673757 596.92539405 -284.60528067 514.51284313 -239.3013742 250.73038483 C-239.01583229 248.58358974 -238.73005446 246.43682618 -238.4442234 244.29006958 C-236.63866696 230.72691593 -234.83692742 217.16329964 -233.06713271 203.59542733 C-232.2744788 197.52027592 -231.47402276 191.44617349 -230.67142868 185.3723278 C-230.34269439 182.87194685 -230.01693046 180.37117308 -229.69453812 177.86996651 C-224.01978752 133.86052768 -214.71436538 97.08018049 -183.3828125 64.203125 C-182.71636719 63.48382813 -182.04992188 62.76453125 -181.36328125 62.0234375 C-170.7088071 50.8530625 -157.6283154 42.89744633 -144.3828125 35.203125 C-143.76744629 34.83977051 -143.15208008 34.47641602 -142.51806641 34.10205078 C-100.52487115 9.4950985 -48.15503387 0.18391106 0 0 Z " fill="#654B56" transform="translate(2111.3828125,403.796875)"/>
<path d="M0 0 C3.42224829 -0.00217347 6.84416633 -0.02035872 10.26635742 -0.03930664 C29.75536618 -0.08958255 49.25743599 0.81735159 68.5222168 3.93530273 C69.57997314 4.10376709 70.63772949 4.27223145 71.72753906 4.44580078 C112.15102079 11.16260313 153.73242079 25.75850828 179.32299805 59.79077148 C196.71607099 84.19545731 201.09121601 112.67143121 196.74633789 142.16552734 C191.03307162 173.17298156 171.07069833 199.52807574 145.5222168 217.18530273 C124.06475356 231.65862036 100.1496747 239.87869778 75.5222168 247.18530273 C76.9762793 247.67836914 76.9762793 247.67836914 78.4597168 248.18139648 C102.4604967 256.58166945 121.39522994 269.81817317 132.859375 293.14526367 C136.88876495 301.75512339 138.97745372 310.70302038 139.5222168 320.18530273 C139.5840918 321.2468457 139.5840918 321.2468457 139.6472168 322.32983398 C140.22796839 343.63615823 134.95937426 363.72075852 124.5222168 382.18530273 C123.97823242 383.15854492 123.43424805 384.13178711 122.8737793 385.13452148 C100.22219525 422.97924117 56.93140275 442.33970948 15.93041992 453.13061523 C-19.28977513 461.81343956 -55.14543295 464.35113468 -91.2902832 464.37280273 C-92.26738251 464.37389038 -93.24448181 464.37497803 -94.25119019 464.37609863 C-103.92429277 464.37487719 -113.57971987 464.27529468 -123.23950195 463.73608398 C-123.94831009 463.69758835 -124.65711823 463.65909271 -125.3874054 463.61943054 C-130.22422651 463.31208108 -130.22422651 463.31208108 -132.4777832 462.18530273 C-132.3952832 463.15467773 -132.3127832 464.12405273 -132.2277832 465.12280273 C-132.28771269 471.06780813 -134.51443152 475.82843445 -138.2902832 480.36108398 C-148.82551077 490.6445506 -162.06406682 492.37963172 -176.1027832 492.49780273 C-177.22813477 492.52680664 -178.35348633 492.55581055 -179.51293945 492.58569336 C-187.80368818 492.64799378 -196.12163366 491.86805414 -202.68725586 486.31738281 C-208.60187103 480.30679829 -210.82317968 472.82788446 -210.94604492 464.51025391 C-210.93589355 463.66052002 -210.92574219 462.81078613 -210.9152832 461.93530273 C-210.90770996 460.975354 -210.90013672 460.01540527 -210.89233398 459.02636719 C-208.93729488 364.23551151 -189.24000729 266.36248429 -160.86108398 154.5357666 C-160.44666937 152.99768771 -160.0366593 151.45841361 -159.6315918 149.91784668 C-156.68189152 138.75955546 -153.58994146 127.68471889 -143.1027832 121.43139648 C-127.3114564 113.93521605 -105.84150038 112.19756789 -89.13793945 117.99780273 C-84.3052522 120.15766296 -81.50856334 122.86873708 -78.4777832 127.18530273 C-74.59348893 138.83818557 -80.33128753 151.86010486 -83.73754883 162.98608398 C-107.43228371 240.54110187 -119.72824553 321.73223678 -128.4777832 402.18530273 C-73.83184662 405.80680859 -6.17580446 408.77185828 38.08081055 371.00170898 C50.18890567 359.5470018 57.28476373 344.47627163 57.8347168 327.81030273 C57.52485595 314.079594 52.34406179 302.38947563 42.97143555 292.50561523 C25.33643886 275.79877627 -0.43176442 271.99078861 -23.82495117 270.8515625 C-39.19251456 270.08874839 -39.19251456 270.08874839 -44.09106445 265.75952148 C-48.98378958 260.2052448 -48.68914023 255.10269 -48.7277832 248.12280273 C-48.7587207 246.76638672 -48.7587207 246.76638672 -48.7902832 245.38256836 C-48.84542654 235.73937812 -46.6251263 226.79882249 -40.4777832 219.18530273 C-32.18837015 211.7046129 -19.30091319 211.73777705 -8.7277832 211.24780273 C29.42409041 208.99612087 70.77265351 200.26181227 98.5222168 172.18530273 C99.28405273 171.4337793 100.04588867 170.68225586 100.83081055 169.90795898 C112.01783378 158.21339594 116.5222168 143.09254533 116.5222168 127.18530273 C115.46722849 112.54733997 109.18262548 98.77321498 97.9987793 88.97436523 C53.92184502 55.52419867 -13.31917382 59.9642971 -65.1027832 66.93530273 C-117.37030668 74.42539702 -166.76899817 90.97369642 -212.8684082 116.61889648 C-224.12939979 122.8585253 -235.2783757 127.79180153 -248.2277832 124.12280273 C-254.86749704 120.16451179 -258.10682662 115.2460412 -260.01293945 107.79077148 C-262.20403057 95.50961374 -259.23380977 83.57269358 -252.4777832 73.18530273 C-235.71295285 53.89342074 -205.88707422 42.07413626 -182.4777832 33.18530273 C-181.46731934 32.79922852 -180.45685547 32.4131543 -179.41577148 32.01538086 C-134.13574948 14.88420535 -86.67813271 5.14524056 -38.4777832 1.18530273 C-36.74975464 1.04064575 -36.74975464 1.04064575 -34.98681641 0.89306641 C-23.33219505 0.03768834 -11.68196819 -0.00082611 0 0 Z " fill="#654B56" transform="translate(321.477783203125,1387.814697265625)"/>
<path d="M0 0 C29.51032629 8.75432421 57.08784215 29.66144424 79.32421875 50.5078125 C81.57265386 52.60197542 83.85390589 54.62740662 86.1875 56.625 C93.37621414 62.87411043 99.81855983 69.77003151 106 77 C106.84949219 77.96035156 107.69898438 78.92070313 108.57421875 79.91015625 C126.16551842 99.89630363 142.25152338 122.02642114 154.9050293 145.47094727 C157.40568506 150.07507099 160.2145057 154.3758309 163.1875 158.6875 C171.0683391 170.1893059 177.54146058 182.69208386 176 197 C174.0633077 205.08998051 169.36035733 210.83558907 164 217 C162.61416092 218.59473394 161.23087518 220.19142373 159.85375977 221.79370117 C158.51444332 223.34819481 157.16190152 224.89126528 155.80859375 226.43359375 C148.95439372 234.78202172 143.96672259 244.49527391 138.9375 254 C138.28707838 255.2220373 137.63643897 256.4439587 136.9855957 257.66577148 C131.30490773 268.34942845 125.73617454 279.09103421 120.1875 289.84375 C117.93088778 294.21327507 115.6464211 298.56617805 113.3347168 302.90673828 C107.43482478 313.99336235 101.84152435 325.23212617 96.23901367 336.47094727 C95.89289536 337.16524338 95.54677704 337.85953949 95.19017029 338.57487488 C94.49452062 339.97260382 93.800321 341.37105538 93.1075592 342.7702179 C91.40620909 346.20254878 89.6841091 349.6202419 87.90722656 353.01416016 C83.0141784 362.42561693 79.30770975 371.93084013 76 382 C75.50758763 383.4691115 75.01410107 384.93786339 74.51953125 386.40625 C73.33403631 389.93347338 72.16282192 393.46522718 71 397 C69 396 69 396 68.15307617 393.92822266 C67.86924072 393.0160498 67.58540527 392.10387695 67.29296875 391.1640625 C66.96063232 390.13289307 66.6282959 389.10172363 66.28588867 388.03930664 C65.92342041 386.91258545 65.56095215 385.78586426 65.1875 384.625 C56.33889185 358.21116223 43.32456223 333.8149359 26 312 C24.9790625 310.69095703 24.9790625 310.69095703 23.9375 309.35546875 C9.9492239 291.7929824 -6.09234576 276.48346419 -24 263 C-24.65000977 262.50419434 -25.30001953 262.00838867 -25.96972656 261.49755859 C-40.60712979 250.37748058 -56.33898522 241.21360071 -72.19921875 231.96875 C-72.97644287 231.51459717 -73.75366699 231.06044434 -74.55444336 230.5925293 C-75.96265203 229.77153096 -77.37341363 228.95488693 -78.78735352 228.14379883 C-85.82818046 224.06013744 -91.33794103 219.98617691 -94 212 C-100.56997993 147.54766529 -54.46401827 66.41885141 -15.3125 18.125 C-13.88185329 16.41092328 -12.44386566 14.70295654 -11 13 C-10.00240285 11.81657593 -9.00502053 10.63297074 -8.0078125 9.44921875 C-5.34567734 6.29337852 -2.67497069 3.14496554 0 0 Z " fill="#654B56" transform="translate(629,0)"/>
<path d="M0 0 C2.66863422 1.46289156 4.08824755 3.41246519 5.94921875 5.8125 C9.0873773 9.79908578 12.27151646 13.71114032 15.57421875 17.5625 C55.52297573 65.55048053 95.80474701 141.53502424 94.265625 205.5625 C93.38888158 210.40398577 90.70342112 214.10309299 87.82421875 218 C87.34082031 218.66644531 86.85742188 219.33289063 86.359375 220.01953125 C81.43945951 226.1662959 75.07482975 230.72203353 68.85009766 235.45214844 C66.76002229 237.04904863 64.68683633 238.66578992 62.6171875 240.2890625 C54.75466254 246.45288837 46.82943554 252.52260629 38.82421875 258.5 C24.83855102 268.95100715 10.99757783 279.53396576 -2.17578125 291 C-2.98660156 291.69867188 -3.79742188 292.39734375 -4.6328125 293.1171875 C-7.19246621 295.36696605 -9.69052807 297.66811448 -12.17578125 300 C-12.76762207 300.55252441 -13.35946289 301.10504883 -13.96923828 301.67431641 C-37.56592815 323.88400283 -51.163248 352.03227967 -65.8203125 380.5 C-69.5328957 387.63187669 -69.5328957 387.63187669 -71.17578125 390 C-71.83578125 390 -72.49578125 390 -73.17578125 390 C-73.56209717 388.86498047 -73.94841309 387.72996094 -74.34643555 386.56054688 C-94.59394309 327.20908041 -117.23210306 263.18233796 -164.171875 219.16015625 C-170.83367048 212.89100312 -175.51009902 207.60588615 -176.45336914 198.24536133 C-176.63504853 190.69142346 -175.27941228 185.34793909 -171.92578125 178.625 C-171.47686523 177.6858374 -171.02794922 176.7466748 -170.56542969 175.77905273 C-147.58563804 128.3704001 -115.76939825 79.27836903 -73.88671875 46.15625 C-71.10529565 43.94393653 -68.42901271 41.63391538 -65.73828125 39.3125 C-51.04199082 27.09715551 -34.9719164 17.0481445 -18.17578125 8 C-17.37962402 7.5683252 -16.5834668 7.13665039 -15.76318359 6.69189453 C-13.55577354 5.50500031 -11.33857467 4.34045625 -9.11328125 3.1875 C-8.46456055 2.84348145 -7.81583984 2.49946289 -7.14746094 2.14501953 C-4.72573433 0.9276567 -2.73913695 0 0 0 Z " fill="#654B56" transform="translate(1547.17578125,0)"/>
<path d="M0 0 C2.75983611 2.52802737 4.09082253 4.77365282 5.71484375 8.1328125 C6.215 9.14085937 6.71515625 10.14890625 7.23046875 11.1875 C12.79883077 25.03791946 8.48346241 41.41994146 3.00048828 54.62939453 C-6.29282108 76.05703094 -20.21938582 93.66145866 -36.06738281 110.67236328 C-37.59699862 112.32461296 -39.11039047 113.99060627 -40.62109375 115.66015625 C-45.38208832 120.90585223 -50.09841969 125.96734604 -55.54296875 130.51953125 C-57.99241733 132.6567952 -60.25231258 134.94374453 -62.53515625 137.2578125 C-66.05621948 140.82181552 -69.66701633 144.16085418 -73.47265625 147.4140625 C-76.83309741 150.41809323 -79.94873324 153.66339281 -83.11328125 156.87109375 C-85.11117672 158.83998751 -87.1309011 160.65470298 -89.28515625 162.4453125 C-94.01694046 166.48323019 -98.14771659 171.08959183 -102.34863281 175.66479492 C-105.81941792 179.44318648 -109.36723848 183.11377145 -113.01049805 186.72607422 C-114.72221156 188.44573644 -116.33534486 190.22470021 -117.91015625 192.0703125 C-132.24064733 208.6754847 -132.24064733 208.6754847 -139.93359375 209.28515625 C-144.97267761 209.23219291 -148.30395689 207.27880709 -152.09765625 204.1328125 C-162.11713382 192.31496716 -165.50176756 179.68711758 -164.53515625 164.2578125 C-160.22061138 125.07066185 -142.02155877 87.5607582 -123.66015625 53.1953125 C-123.05405518 52.0604541 -122.4479541 50.9255957 -121.82348633 49.75634766 C-118.01219547 42.72743472 -113.9222432 35.94214075 -109.53515625 29.2578125 C-120.38485675 30.26324809 -129.91231019 32.29503332 -139.69921875 37.3828125 C-142.87059407 38.89427648 -145.06051054 38.71350374 -148.53515625 38.2578125 C-154.76398291 35.30122417 -159.04148135 31.71869746 -161.53515625 25.2578125 C-161.79895193 21.56467297 -161.43191951 19.48850562 -159.234375 16.47265625 C-149.43474539 6.58611196 -130.58738656 2.29327426 -117.16015625 1.9453125 C-107.71504415 2.31570905 -100.78548492 5.39387735 -93.78515625 11.7578125 C-93.04265625 12.5828125 -92.30015625 13.4078125 -91.53515625 14.2578125 C-90.85453125 14.9796875 -90.17390625 15.7015625 -89.47265625 16.4453125 C-84.8625925 23.13734052 -82.33088548 30.15540731 -83.53515625 38.2578125 C-86.99802173 52.67863364 -94.50845492 65.68449151 -101.21704102 78.79003906 C-103.99501035 84.21797397 -106.760797 89.65205656 -109.51171875 95.09375 C-109.95993201 95.9802527 -109.95993201 95.9802527 -110.41720009 96.88466454 C-119.43749601 114.77284927 -127.92228186 132.98761919 -133.53515625 152.2578125 C-133.79941406 153.12277344 -134.06367188 153.98773437 -134.3359375 154.87890625 C-135.38350066 158.99076981 -135.61700996 163.07450308 -135.64453125 167.3046875 C-135.65049316 168.21879395 -135.65645508 169.13290039 -135.66259766 170.07470703 C-135.65906626 174.13651562 -135.61200284 178.19676554 -135.53515625 182.2578125 C-131.83990717 178.71406204 -128.68297662 174.96987533 -125.59765625 170.8828125 C-120.41725748 164.14685209 -114.75699971 157.97154788 -108.89453125 151.828125 C-106.55680989 149.37184826 -104.29709683 146.86532838 -102.07421875 144.3046875 C-98.53820781 140.23139934 -94.86664408 136.30071525 -91.16015625 132.3828125 C-86.23741127 127.15549307 -81.3527447 121.90315048 -76.57421875 116.54296875 C-75.16124323 114.9594617 -73.73867717 113.38448017 -72.30859375 111.81640625 C-66.82994303 105.80118664 -61.58792914 99.63451358 -56.53515625 93.2578125 C-55.79193115 92.32340332 -55.79193115 92.32340332 -55.03369141 91.37011719 C-32.10581118 63.60566158 -32.10581118 63.60566158 -23.53515625 30.2578125 C-24.58991733 24.35469587 -25.93461506 19.61969041 -29.78515625 14.9453125 C-32.50052974 11.59022695 -32.50052974 11.59022695 -32.84765625 8.2578125 C-30.47316076 2.83039424 -26.90660475 -1.53123507 -21.59765625 -4.2421875 C-13.34161419 -5.59011273 -6.93741617 -4.76746936 0 0 Z " fill="#654B56" transform="translate(518.53515625,1935.7421875)"/>
<path d="M0 0 C0 32.01 0 64.02 0 97 C-5.94 96.01 -11.88 95.02 -18 94 C-62.4846519 88.57734931 -107.40450923 102.84007247 -144.13671875 127.85546875 C-146 129 -146 129 -148 129 C-154.36546697 107.70630112 -148.04380155 78.00274515 -137.89282227 58.81665039 C-133.68926058 51.21503757 -128.85795971 44.43952611 -123 38 C-122.38898438 37.30777344 -121.77796875 36.61554688 -121.1484375 35.90234375 C-97.39665659 10.4828846 -60.14065137 0.67557135 -26.53125 -0.9140625 C-17.57418011 -1.13204429 -8.90613683 -1.27230526 0 0 Z " fill="#654B56" transform="translate(2063,264)"/>
<path d="M0 0 C1.60814575 0.07214722 1.60814575 0.07214722 3.2487793 0.14575195 C40.04950392 2.06128598 71.98408368 14.66478653 97.5 41.625 C116.82839446 63.71959584 122.68645401 92.22417017 121.75 120.75 C121.52757877 123.78720029 121.18850634 126.73526893 120.75 129.75 C116.01302943 128.04954903 111.79646928 125.60307287 107.4375 123.125 C83.23409451 109.55318088 58.35332883 98.93895364 30.75 94.75 C29.91082031 94.61851562 29.07164062 94.48703125 28.20703125 94.3515625 C12.81407933 92.39101441 -2.50382225 93.95977059 -17.73730469 96.36108398 C-20.90411429 96.85124408 -24.07768835 97.29681262 -27.25 97.75 C-27.25 65.74 -27.25 33.73 -27.25 0.75 C-17.97841378 0.13189425 -9.20469105 -0.41605233 0 0 Z " fill="#654B56" transform="translate(141.25,263.25)"/>
<path d="M0 0 C3.87932804 1.38970835 7.08150551 3.08150551 10 6 C10.29334277 12.10263362 8.2781414 17.39100623 5.75 22.8125 C-15.34766281 70.72228386 -31.16099246 122.76812331 -43.8125 173.5 C-44.04912354 174.42329102 -44.28574707 175.34658203 -44.52954102 176.29785156 C-46.04379381 182.72035129 -46.9540092 189.42583757 -46 196 C-44.7164006 197.87215738 -44.7164006 197.87215738 -43 199 C-38.57556808 199.3944261 -34.25352881 198.2724507 -30.25 196.4375 C-27.12338884 195.05457583 -25.35325787 194.60549907 -22 195 C-21 196 -21 196 -20.6875 199 C-20.81707732 204.74852105 -22.95039746 209.73698982 -26.80078125 213.98828125 C-34.25724034 220.74976939 -41.209169 224.370973 -51.34375 224.20703125 C-58.36745105 223.65959573 -63.73320112 221.40080341 -68.49609375 216.140625 C-73.55631043 208.93803087 -74.66728495 200.60068397 -75 192 C-75.6290625 192.845625 -76.258125 193.69125 -76.90625 194.5625 C-86.99089108 207.99150701 -98.54566284 221.04339608 -116 224 C-125.85923726 224.7875274 -135.1621126 223.41281696 -143 217 C-151.69857983 208.62925609 -154.08678157 199.01743794 -154.34375 187.28076172 C-154.63357015 155.69489392 -141.99742212 130.6888937 -120.3125 107.9375 C-111.53038657 99.37357573 -101.52732556 92.32274708 -90 88 C-88.63101562 87.45666016 -88.63101562 87.45666016 -87.234375 86.90234375 C-78.88769391 84.57374069 -68.0711376 84.40620776 -60.1875 88.1875 C-56.57324638 90.26125208 -53.88107397 93.00830888 -51 96 C-50.37368164 94.12104492 -49.74741781 92.24207165 -49.12133789 90.36303711 C-48.52494588 88.57452948 -47.92773849 86.78629359 -47.32983398 84.99829102 C-45.50199598 79.52720223 -43.68695619 74.05220822 -41.89103699 68.5705719 C-22.11673597 8.23880482 -22.11673597 8.23880482 -11 1 C-7.51533408 -0.74233296 -3.80996631 -0.45428851 0 0 Z M-103.625 124.625 C-116.23382748 142.23733045 -123.9658605 162.50385592 -124.3125 184.25 C-124.33038574 185.00732422 -124.34827148 185.76464844 -124.36669922 186.54492188 C-124.35752386 192.5062858 -123.23055929 197.25469626 -119.375 202 C-115.35623063 203.69211342 -112.11767537 203.30959706 -108 202 C-83.1911214 188.69144705 -68.43819212 153.21490351 -60.625 127.5625 C-58.14776635 118.47812482 -58.14776635 118.47812482 -60.75 109.6875 C-63.25459195 106.69590406 -65.27522506 104.40307241 -69.15625 103.49609375 C-83.92504184 103.12687395 -95.0237716 113.68600183 -103.625 124.625 Z " fill="#654B56" transform="translate(1172,1921)"/>
<path d="M0 0 C0.75539063 -0.01611328 1.51078125 -0.03222656 2.2890625 -0.04882812 C8.78117614 -0.05440554 14.24958922 1.15557561 19.42578125 5.21484375 C20.35970703 6.22224609 20.35970703 6.22224609 21.3125 7.25 C21.94800781 7.91902344 22.58351563 8.58804687 23.23828125 9.27734375 C24.92623572 11.22728672 26.48379658 13.22713715 28 15.3125 C28.38929687 14.735 28.77859375 14.1575 29.1796875 13.5625 C33.56758965 7.73892479 33.56758965 7.73892479 37.375 6.60546875 C43.90325011 6.3300582 48.71915373 8.64357492 54 12.3125 C55 13.3125 55 13.3125 55.33032227 15.7121582 C54.85340596 20.91029922 52.77107054 25.15504607 50.71484375 29.91796875 C46.37050103 40.37859441 42.7288418 50.92701509 39.37890625 61.73828125 C39.02331194 62.88260431 39.02331194 62.88260431 38.66053391 64.05004501 C36.70127623 70.36379868 34.76684251 76.68509391 32.83435059 83.00708008 C2.6358846 181.73887856 2.6358846 181.73887856 -33.84814453 202.35693359 C-42.51815322 206.89304084 -50.9702988 210.3988893 -61 209.3125 C-65.53203467 207.80182178 -69.1779391 206.26338526 -72 202.3125 C-72.25 199.0625 -72.25 199.0625 -72 196.3125 C-68.34202914 194.33521846 -64.76131629 192.87500054 -60.8125 191.5625 C-39.1775352 183.74580771 -25.72011871 163.9535589 -16.16455078 143.95556641 C-12.208578 134.97708394 -9.1347371 125.60247652 -6 116.3125 C-6.33 115.9825 -6.66 115.6525 -7 115.3125 C-7.60134766 116.03953125 -7.60134766 116.03953125 -8.21484375 116.78125 C-17.01778162 127.16113139 -26.96118221 136.26188617 -41 138.3125 C-50.31358338 139.05644214 -58.89851172 138.20613646 -66.3125 132.125 C-76.15240854 122.68186196 -79.22646389 110.60645331 -80 97.3125 C-80.25208496 71.72587646 -70.27782368 48.73672746 -54 29.3125 C-53.22076172 28.31283203 -53.22076172 28.31283203 -52.42578125 27.29296875 C-39.85704336 11.74825766 -20.21924363 -0.08625957 0 0 Z M-28.5456543 36.24975586 C-41.68317822 56.3872177 -52.93353504 84.72379607 -48.49609375 109.078125 C-47.46765194 112.72174742 -46.524369 114.81726261 -43.75 117.4375 C-40.03578405 118.61929598 -37.7635736 118.30291411 -34 117.3125 C-27.16480017 113.40667153 -21.61402794 108.31708053 -16.8125 102.125 C-16.34400635 101.52115479 -15.8755127 100.91730957 -15.39282227 100.29516602 C-2.50543823 83.31340868 7.26675263 64.08759933 14.125 43.9375 C14.56827637 42.64525513 14.56827637 42.64525513 15.02050781 41.3269043 C16.56734254 36.53955469 17.50135721 32.40320402 17 27.3125 C13.47400648 21.80313512 8.36198416 17.28882858 1.8359375 15.828125 C-11.59768704 14.97368952 -21.58597105 26.05790395 -28.5456543 36.24975586 Z " fill="#654B56" transform="translate(1475,2006.6875)"/>
<path d="M0 0 C1.03543945 -0.03673828 1.03543945 -0.03673828 2.09179688 -0.07421875 C8.441017 -0.11032806 11.79381213 2.35157568 16.375 6.4375 C19.62963537 10.17430357 19.45165683 14.28109914 19.4140625 19.01171875 C18.71149402 25.73295725 16.3151258 32.03595254 14.0625 38.375 C13.65902344 39.5196875 13.25554687 40.664375 12.83984375 41.84375 C11.93425292 44.36252594 11.00540895 46.8700735 10.0625 49.375 C10.42375977 48.90304199 10.78501953 48.43108398 11.15722656 47.94482422 C43.49454306 5.7919167 43.49454306 5.7919167 60.0625 0.375 C69.24516843 -0.62197543 77.42797656 -0.30451463 85.0625 5.375 C90.0301521 9.83447892 92.72368612 14.24147066 93.27734375 20.99609375 C93.84712625 38.5226036 85.46052738 54.01214348 78.203125 69.50390625 C67.83264207 90.01576301 67.83264207 90.01576301 65.0625 112.375 C68.05317031 113.87033515 70.8193517 113.8383069 74.0625 113.375 C76.65297664 112.41466754 79.13699619 111.33646107 81.6328125 110.15234375 C84.50530872 109.23332968 86.19557596 109.56389516 89.0625 110.375 C89.51805249 116.75273483 88.84055541 121.12034612 85.0625 126.375 C79.15921048 132.96360012 72.43549397 137.51002266 63.55859375 138.71484375 C56.27285937 138.99988813 48.59371204 137.62143781 42.6875 133.125 C35.42234312 125.51388327 34.601282 118.00303067 34.78515625 107.796875 C35.60083494 89.27569327 44.91369119 71.16947984 52.8125 54.75 C53.82421605 52.63793982 54.83392068 50.52497749 55.83966064 48.4100647 C56.45700065 47.11269809 57.07780042 45.8169694 57.70281982 44.52328491 C60.25346851 39.1769123 62.41536775 34.37375177 62.0625 28.375 C59.37720658 27.06142084 59.37720658 27.06142084 56.0625 26.375 C50.88222436 28.35083329 47.52624578 31.47473771 43.75 35.375 C43.18168457 35.95314453 42.61336914 36.53128906 42.02783203 37.12695312 C37.86333408 41.41743391 34.00679845 45.89408229 30.29296875 50.58203125 C28.29087548 53.08903071 26.22798122 55.52957227 24.13208008 57.95825195 C17.89191571 65.20151641 12.12449556 72.75841722 6.48046875 80.47290039 C5.54221091 81.73150349 4.58128592 82.97355011 3.59765625 84.19702148 C-0.96794017 89.9525713 -4.10614404 96.22504433 -7.3125 102.8125 C-7.87831787 103.9567041 -8.44413574 105.1009082 -9.02709961 106.27978516 C-11.54841112 111.39866986 -14.02958127 116.53253116 -16.41796875 121.71484375 C-16.77648926 122.492229 -17.13500977 123.26961426 -17.50439453 124.07055664 C-18.14626447 125.47565055 -18.77944398 126.88476297 -19.40185547 128.29858398 C-21.40700835 132.72543296 -23.50319535 136.15784768 -27.9375 138.375 C-35.82328347 138.44591532 -40.55560421 136.57890127 -46.3125 131.125 C-48.49414521 127.43298503 -48.62701027 124.51042186 -47.9375 120.375 C-46.32626785 116.0163616 -44.25597508 111.90730058 -42.1875 107.75 C-40.97873377 105.24791621 -39.78631016 102.73825494 -38.59765625 100.2265625 C-38.29209305 99.58243408 -37.98652985 98.93830566 -37.67170715 98.2746582 C-19.21144215 61.58699951 -19.21144215 61.58699951 -12.9375 22.375 C-14.59554096 18.64440785 -16.53968438 16.60115506 -19.9375 14.375 C-19.75821819 9.80331393 -19.44356013 7.89256149 -16.1875 4.5625 C-10.78539799 0.9264698 -6.46530333 0.01200613 0 0 Z " fill="#654B56" transform="translate(1282.9375,2006.625)"/>
<path d="M0 0 C6.05432199 4.51508759 9.44800703 11.46131586 11.03125 18.75 C11.95932382 34.10125382 10.21918422 45.60740399 0.03125 57.75 C-15.68197118 75.20585285 -40.47632202 82.05669851 -63.15625 83.375 C-65.7601029 83.51154184 -68.36386619 83.63395594 -70.96875 83.75 C-70.68310396 92.99064942 -70.35737447 101.57035765 -63.34375 108.25 C-56.94704695 112.29002298 -49.00867417 111.61112878 -41.76171875 110.06640625 C-31.72282691 106.8955374 -22.94035725 102.01023298 -15.0390625 95.0703125 C-12.47221513 93.43334192 -10.96033199 93.35741698 -7.96875 93.75 C-5.02084156 96.80319089 -4.07720707 99.6654293 -3.65625 103.875 C-4.15748801 110.09035134 -5.66063364 114.5598453 -10.26171875 118.92578125 C-19.0640545 125.67042812 -29.01893667 130.01257575 -39.96875 131.75 C-40.62617187 131.86085938 -41.28359375 131.97171875 -41.9609375 132.0859375 C-56.6369595 134.13504246 -71.89214332 133.83231366 -84.6484375 125.546875 C-93.86032562 118.41308959 -99.28033419 109.02323746 -101.59375 97.6875 C-104.05000734 71.89679793 -95.70435958 47.23457295 -79.65625 27 C-78.11854135 25.22817654 -76.55472002 23.47875832 -74.96875 21.75 C-74.52692383 21.26047852 -74.08509766 20.77095703 -73.62988281 20.26660156 C-56.06441424 0.98981385 -24.98729243 -15.86494757 0 0 Z M-47.84375 26.96484375 C-55.7384253 37.65554989 -66.96875 55.01643816 -66.96875 68.75 C-51.54401915 67.96569165 -37.01625008 59.92051754 -26.52734375 48.69921875 C-20.29311719 40.90252939 -15.47013171 33.13343918 -15.7109375 22.93359375 C-16.08999027 19.72313162 -17.20344649 17.43064607 -18.96875 14.75 C-29.75087489 7.56191674 -41.22566782 19.14723418 -47.84375 26.96484375 Z " fill="#654B56" transform="translate(914.96875,2012.25)"/>
<path d="M0 0 C6.05432199 4.51508759 9.44800703 11.46131586 11.03125 18.75 C11.95932382 34.10125382 10.21918422 45.60740399 0.03125 57.75 C-15.68197118 75.20585285 -40.47632202 82.05669851 -63.15625 83.375 C-65.7601029 83.51154184 -68.36386619 83.63395594 -70.96875 83.75 C-70.68310396 92.99064942 -70.35737447 101.57035765 -63.34375 108.25 C-56.94704695 112.29002298 -49.00867417 111.61112878 -41.76171875 110.06640625 C-31.72282691 106.8955374 -22.94035725 102.01023298 -15.0390625 95.0703125 C-12.47221513 93.43334192 -10.96033199 93.35741698 -7.96875 93.75 C-5.02084156 96.80319089 -4.07720707 99.6654293 -3.65625 103.875 C-4.15748801 110.09035134 -5.66063364 114.5598453 -10.26171875 118.92578125 C-19.0640545 125.67042812 -29.01893667 130.01257575 -39.96875 131.75 C-40.62617187 131.86085938 -41.28359375 131.97171875 -41.9609375 132.0859375 C-56.6369595 134.13504246 -71.89214332 133.83231366 -84.6484375 125.546875 C-93.86032562 118.41308959 -99.28033419 109.02323746 -101.59375 97.6875 C-104.05000734 71.89679793 -95.70435958 47.23457295 -79.65625 27 C-78.11854135 25.22817654 -76.55472002 23.47875832 -74.96875 21.75 C-74.52692383 21.26047852 -74.08509766 20.77095703 -73.62988281 20.26660156 C-56.06441424 0.98981385 -24.98729243 -15.86494757 0 0 Z M-47.84375 26.96484375 C-55.7384253 37.65554989 -66.96875 55.01643816 -66.96875 68.75 C-51.54401915 67.96569165 -37.01625008 59.92051754 -26.52734375 48.69921875 C-20.29311719 40.90252939 -15.47013171 33.13343918 -15.7109375 22.93359375 C-16.08999027 19.72313162 -17.20344649 17.43064607 -18.96875 14.75 C-29.75087489 7.56191674 -41.22566782 19.14723418 -47.84375 26.96484375 Z " fill="#654B56" transform="translate(602.96875,2012.25)"/>
<path d="M0 0 C0.96905273 0.00563965 1.93810547 0.0112793 2.93652344 0.01708984 C16.32896617 0.24396618 27.03071038 3.44516704 37.0625 12.625 C45.02107 21.07159552 45.64702632 31.60111178 45.4609375 42.62109375 C44.96299022 54.82573239 39.85125866 65.20777536 31 73.5625 C17.96029826 83.92361741 2.32561549 86.21091055 -13.8125 85.3125 C-26.22003104 83.82762306 -37.34371264 80.5193813 -45.37890625 70.4609375 C-52.86640789 59.239886 -53.66529925 44.95598526 -51.1640625 31.9375 C-47.31794093 20.36626246 -38.56634483 11.62140672 -28.04296875 5.7734375 C-18.81605105 1.36000274 -10.17503963 -0.06193502 0 0 Z " fill="#654B56" transform="translate(1630.8125,1481.6875)"/>
<path d="M0 0 C4.46876455 3.07848225 8.07974831 6.73924494 9.8125 11.9375 C10.90986309 32.78739864 2.26289214 54.4453094 -4.1875 73.9375 C-4.47254395 74.80084961 -4.75758789 75.66419922 -5.05126953 76.55371094 C-10.91862817 94.32128445 -16.84557112 112.06928315 -22.84332275 129.79327393 C-31.26250257 154.63979861 -31.26250257 154.63979861 -38.1875 179.9375 C-38.39890625 180.80890625 -38.6103125 181.6803125 -38.828125 182.578125 C-39.2970315 185.65659813 -39.28143457 188.63797777 -39.25 191.75 C-39.24097656 192.91144531 -39.23195313 194.07289063 -39.22265625 195.26953125 C-39.21105469 196.14996094 -39.19945312 197.03039063 -39.1875 197.9375 C-33.33645809 198.45759261 -29.21768221 197.00478384 -23.8359375 194.71484375 C-20.85317483 193.83937211 -19.14194924 194.0895624 -16.1875 194.9375 C-15.73286198 201.30243223 -16.43607669 205.67918474 -20.1875 210.9375 C-25.58168859 216.79711637 -33.17459247 222.37311157 -41.3515625 223.140625 C-48.52572707 223.27727575 -54.76609634 222.82655239 -60.421875 218.05078125 C-66.95619007 211.21836786 -69.24582636 205.0399394 -69.6875 195.6875 C-69.10965402 176.16456072 -61.13323234 157.31275707 -54.92404175 139.01669312 C-32.60138031 75.07595863 -32.60138031 75.07595863 -19.77734375 8.75 C-18.94794641 4.7952577 -17.67894014 1.94498303 -14.2734375 -0.35546875 C-9.48749636 -1.97766977 -4.73628633 -1.57876211 0 0 Z " fill="#654B56" transform="translate(805.1875,1922.0625)"/>
<path d="M0 0 C4.31501874 2.32709526 7.36886091 5.93694057 9.5390625 10.27734375 C11.35887492 23.14601727 5.95676549 37.45920821 1.23828125 49.24609375 C0.37631936 51.39207913 0.37631936 51.39207913 0.5390625 54.27734375 C1.03535156 53.24996094 1.53164063 52.22257812 2.04296875 51.1640625 C6.08904765 42.87316404 10.27105667 34.87542908 15.5390625 27.27734375 C16.20421875 26.31441406 16.869375 25.35148437 17.5546875 24.359375 C33.93590673 1.58476625 33.93590673 1.58476625 44.5390625 -0.72265625 C50.10459031 -1.43535481 55.76252813 -2.09047433 60.92578125 0.453125 C65.27775007 3.98396762 67.24959005 7.67882359 67.875 13.29296875 C67.97022819 21.17786261 67.35867143 27.65828179 62.1953125 33.90234375 C60.8515625 35.27734375 60.8515625 35.27734375 58.5390625 37.27734375 C58.2090625 37.60734375 57.8790625 37.93734375 57.5390625 38.27734375 C50.82915259 39.10136777 50.82915259 39.10136777 47.44140625 36.9375 C46.77238281 36.38964844 46.10335937 35.84179688 45.4140625 35.27734375 C42.97286413 33.29120372 41.68228781 32.31695926 38.6015625 31.46484375 C21.33403773 36.04602379 8.63091136 62.28690577 0.21655273 76.68310547 C-7.83306818 90.77269825 -13.94465674 105.60171978 -19.65600586 120.7590332 C-25.12495423 135.10935212 -25.12495423 135.10935212 -29.4609375 137.27734375 C-37.1558055 137.61190323 -42.68145589 135.28456704 -48.4609375 130.27734375 C-51.18977502 126.18408747 -50.98180673 123.08265972 -50.4609375 118.27734375 C-49.6506218 115.09881061 -48.48374485 112.12251917 -47.2421875 109.08984375 C-46.74147736 107.81149658 -46.74147736 107.81149658 -46.23065186 106.50732422 C-45.51956199 104.69432715 -44.80210153 102.88381759 -44.07873535 101.07568359 C-42.19701916 96.36492004 -40.36958787 91.63318336 -38.5390625 86.90234375 C-38.17939392 85.97550781 -37.81972534 85.04867187 -37.44915771 84.09375 C-24.57032112 53.09607008 -24.57032112 53.09607008 -22.4609375 20.27734375 C-24.60842154 17.03994427 -24.60842154 17.03994427 -27.4609375 15.27734375 C-28.1209375 14.61734375 -28.7809375 13.95734375 -29.4609375 13.27734375 C-29.380143 8.9952352 -28.9081884 6.83640737 -26.2109375 3.46484375 C-19.2603397 -2.06404086 -8.41976775 -2.47247148 0 0 Z " fill="#654B56" transform="translate(672.4609375,2007.72265625)"/>
<path d="M0 0 C1.2375 -0.02416992 1.2375 -0.02416992 2.5 -0.04882812 C7.95681611 -0.05315893 11.87062607 0.55014857 16.625 3.3125 C19.64588982 6.93267565 20.03410223 9.67595155 19.75 14.3125 C17.84404474 32.69270224 8.98606894 49.55465818 1.48364258 66.18579102 C-10.39819091 88.61318657 -10.39819091 88.61318657 -12.375 112.3125 C-9.84377212 113.57811394 -8.48426042 113.25443763 -5.6875 112.9375 C-4.79804687 112.83953125 -3.90859375 112.7415625 -2.9921875 112.640625 C-0.75733744 112.36043484 1.46294629 112.03825951 3.6875 111.6875 C4.656875 111.56375 5.62625 111.44 6.625 111.3125 C8.16576187 112.85326187 7.86856699 114.2969485 7.9375 116.4375 C7.83539483 122.30390629 5.77230911 125.97615013 1.89453125 130.1953125 C-4.32465969 136.12899168 -10.39569844 138.39254829 -18.9375 138.6875 C-26.85994312 138.43300811 -32.81763503 136.12247247 -38.375 130.3125 C-43.18210391 123.31084866 -43.3600214 115.52074802 -42.375 107.3125 C-41.80156937 104.59077218 -41.18416888 101.96847003 -40.4375 99.296875 C-40.22299698 98.52918289 -40.00849396 97.76149078 -39.78749084 96.97053528 C-36.66305205 86.32246957 -32.16314999 76.19057045 -27.8125 66 C-17.42041043 44.93296625 -17.42041043 44.93296625 -14.375 22.3125 C-16.03304096 18.58190785 -17.97718438 16.53865506 -21.375 14.3125 C-21.19571819 9.74081393 -20.88106013 7.83006149 -17.625 4.5 C-11.64384459 0.47422232 -7.04625292 -0.02726878 0 0 Z " fill="#654B56" transform="translate(1207.375,2006.6875)"/>
<path d="M0 0 C1.2375 -0.02416992 1.2375 -0.02416992 2.5 -0.04882812 C7.95681611 -0.05315893 11.87062607 0.55014857 16.625 3.3125 C19.64588982 6.93267565 20.03410223 9.67595155 19.75 14.3125 C17.84404474 32.69270224 8.98606894 49.55465818 1.48364258 66.18579102 C-10.39819091 88.61318657 -10.39819091 88.61318657 -12.375 112.3125 C-9.84377212 113.57811394 -8.48426042 113.25443763 -5.6875 112.9375 C-4.79804687 112.83953125 -3.90859375 112.7415625 -2.9921875 112.640625 C-0.75733744 112.36043484 1.46294629 112.03825951 3.6875 111.6875 C4.656875 111.56375 5.62625 111.44 6.625 111.3125 C8.16576187 112.85326187 7.86856699 114.2969485 7.9375 116.4375 C7.83539483 122.30390629 5.77230911 125.97615013 1.89453125 130.1953125 C-4.32465969 136.12899168 -10.39569844 138.39254829 -18.9375 138.6875 C-26.85994312 138.43300811 -32.81763503 136.12247247 -38.375 130.3125 C-43.18210391 123.31084866 -43.3600214 115.52074802 -42.375 107.3125 C-41.80156937 104.59077218 -41.18416888 101.96847003 -40.4375 99.296875 C-40.22299698 98.52918289 -40.00849396 97.76149078 -39.78749084 96.97053528 C-36.66305205 86.32246957 -32.16314999 76.19057045 -27.8125 66 C-17.42041043 44.93296625 -17.42041043 44.93296625 -14.375 22.3125 C-16.03304096 18.58190785 -17.97718438 16.53865506 -21.375 14.3125 C-21.19571819 9.74081393 -20.88106013 7.83006149 -17.625 4.5 C-11.64384459 0.47422232 -7.04625292 -0.02726878 0 0 Z " fill="#654B56" transform="translate(979.375,2006.6875)"/>
<path d="M0 0 C3.56180621 2.14949961 6.00706601 4.26906373 7.79296875 8.08203125 C8.89250145 14.72151715 8.69883504 21.41586083 5.1953125 27.30078125 C0.71846353 32.98725237 -4.53602984 37.49730618 -11.890625 38.41796875 C-17.86773622 38.50275047 -21.63845693 38.33186783 -26.20703125 34.08203125 C-32.35318363 26.87769697 -33.94191819 21.56751642 -33.20703125 12.08203125 C-31.07808416 5.69518997 -26.74071053 2.52275084 -21.01953125 -0.73046875 C-14.13501971 -2.8748248 -6.67338802 -3.01334428 0 0 Z " fill="#654B56" transform="translate(1237.20703125,1945.91796875)"/>
<path d="M0 0 C3.56180621 2.14949961 6.00706601 4.26906373 7.79296875 8.08203125 C8.89250145 14.72151715 8.69883504 21.41586083 5.1953125 27.30078125 C0.71846353 32.98725237 -4.53602984 37.49730618 -11.890625 38.41796875 C-17.86773622 38.50275047 -21.63845693 38.33186783 -26.20703125 34.08203125 C-32.35318363 26.87769697 -33.94191819 21.56751642 -33.20703125 12.08203125 C-31.07808416 5.69518997 -26.74071053 2.52275084 -21.01953125 -0.73046875 C-14.13501971 -2.8748248 -6.67338802 -3.01334428 0 0 Z " fill="#654B56" transform="translate(1009.20703125,1945.91796875)"/>
</svg>
