<?xml version="1.0" encoding="UTF-8"?>
<svg version="1.1" xmlns="http://www.w3.org/2000/svg" width="2687" height="628">
<path d="M0 0 C14.39301428 12.2180699 19.35444444 28.24453056 21.25512695 46.60229492 C26.31360954 112.04442497 -3.21114959 177.98190919 -35.55078125 233.11328125 C-36.05077637 233.97260254 -36.55077148 234.83192383 -37.06591797 235.71728516 C-47.04835669 252.84179181 -57.84961059 269.44908017 -69.7578125 285.30078125 C-72.21523049 289.15555457 -72.90192075 291.46018945 -71.94921875 295.9453125 C-68.24602311 307.35667212 -68.24602311 307.35667212 -59.98828125 315.55078125 C-50.52890758 319.85049656 -41.24022115 318.27215067 -31.55078125 315.11328125 C-23.51533335 311.43158512 -17.46164731 306.5961666 -11.55078125 300.11328125 C-10.65617187 299.43007813 -9.7615625 298.746875 -8.83984375 298.04296875 C-5.40304648 293.64433743 -6.09372535 289.76849371 -6.36328125 284.36328125 C-6.41359664 282.28532115 -6.45651195 280.20716925 -6.4921875 278.12890625 C-6.51039551 277.10603516 -6.52860352 276.08316406 -6.54736328 275.02929688 C-6.57921308 247.85686983 3.75881521 221.19799036 22.71484375 201.79296875 C38.19740258 186.62006109 57.78171215 178.49978083 79.44921875 177.86328125 C97.80063958 178.11728015 114.656911 183.70959716 127.69921875 197.0078125 C140.16397205 210.62133014 150.07806829 230.31766727 149.44921875 249.11328125 C150.27329224 248.97696289 150.27329224 248.97696289 151.11401367 248.83789062 C153.62092604 248.42557821 156.12879244 248.01937873 158.63671875 247.61328125 C159.50103516 247.47019531 160.36535156 247.32710937 161.25585938 247.1796875 C165.35448452 246.52013863 169.28147899 245.90618859 173.44921875 246.11328125 C173.57296875 245.57703125 173.69671875 245.04078125 173.82421875 244.48828125 C177.248948 231.4743101 184.01849683 219.51891638 192.44921875 209.11328125 C193.0628125 208.33597656 193.67640625 207.55867187 194.30859375 206.7578125 C206.42064437 192.21834677 225.5589402 181.33430604 244.44921875 179.11328125 C262.7560787 177.69996516 278.07730856 178.72726808 292.56640625 190.890625 C303.68145025 201.14582598 307.22883142 214.40225256 307.82421875 229.11328125 C306.89634395 250.45440172 298.45251803 265.99945846 283.05078125 280.34765625 C266.81788798 294.26156477 244.78587821 300.87329917 224.44921875 306.11328125 C229.45606073 314.09293565 235.45356379 318.11845103 244.56640625 320.54296875 C267.7244369 325.12436777 289.27500115 316.61925571 308.4921875 304.13671875 C310.25998979 302.88504491 312.00097666 301.59398527 313.703125 300.25439453 C315.45242661 298.89047427 317.24183504 297.57549496 319.07739258 296.33007812 C323.31934918 293.14630155 326.00410707 290.6909017 327.47094727 285.49194336 C327.97441506 281.95612533 328.15232125 278.41654979 328.25601196 274.8487854 C328.34910247 271.71240588 328.54920761 268.58552228 328.74415588 265.4540863 C328.84156421 263.8817623 328.93406763 262.30912652 329.02159119 260.73622131 C330.23259254 239.49814947 333.5025574 201.92994265 349.44921875 186.11328125 C357.17616241 179.90175111 365.50318973 178.76276417 375.13671875 178.80078125 C375.96494141 178.78466797 376.79316406 178.76855469 377.64648438 178.75195312 C382.39442905 178.74815173 385.61015286 179.00113908 389.44921875 182.11328125 C393.23282124 189.68048622 389.23230961 200.37772455 387.32421875 207.98828125 C386.67832859 210.64587181 386.04094453 213.30549364 385.40234375 215.96484375 C385.23952911 216.63801636 385.07671448 217.31118896 384.90896606 218.00476074 C383.19642717 225.10257871 381.61621863 232.2263806 380.07421875 239.36328125 C379.82397949 240.49749512 379.57374023 241.63170898 379.31591797 242.80029297 C377.9331081 249.22810063 376.92617158 255.55379875 376.44921875 262.11328125 C376.92230469 261.01113281 377.39539062 259.90898437 377.8828125 258.7734375 C391.24289649 227.97197272 408.88401909 196.94772311 440.3125 181.7265625 C449.92780861 177.93629562 462.94442999 176.88348409 472.76171875 180.67578125 C477.57964768 183.37760022 480.33832627 187.0203227 482.19140625 192.1796875 C484.74418703 201.95369063 483.43045832 211.99654348 481.76171875 221.80078125 C481.58672852 222.86353271 481.41173828 223.92628418 481.23144531 225.02124023 C479.30395876 236.45244648 476.92830217 247.79060335 474.44921875 259.11328125 C474.90022949 258.16412842 474.90022949 258.16412842 475.36035156 257.19580078 C484.16848623 238.79059422 493.78018128 221.39044077 507.44921875 206.11328125 C508.12984375 205.35015625 508.81046875 204.58703125 509.51171875 203.80078125 C520.61253961 192.04697093 537.15101631 179.76669073 553.71875 178.7421875 C563.43144994 178.48065508 571.62620641 178.63770401 579.0859375 185.65234375 C585.59872178 193.52740096 584.82800804 204.08293059 584.04296875 213.6875 C581.99260876 234.23317818 577.23088108 254.61920977 573.12866211 274.83447266 C572.95896408 275.67100876 572.78926605 276.50754486 572.61442566 277.36943054 C572.29557176 278.93835424 571.97566775 280.50706505 571.65449524 282.07551575 C570.28260641 288.81349782 569.25097264 295.2300133 569.19921875 302.11328125 C569.17859375 302.7990625 569.15796875 303.48484375 569.13671875 304.19140625 C569.10056431 308.92763819 569.97725274 312.08646684 572.44921875 316.11328125 C575.04200192 318.32194839 576.62659741 318.11328125 580.07421875 318.11328125 C592.70075247 316.07969133 604.87118861 303.66162966 612.52734375 294.17382812 C617.6361783 286.03811294 617.04398842 276.12712049 617.27539062 266.81933594 C617.56763103 260.58870493 618.58198523 254.50405762 619.63671875 248.36328125 C619.84345215 247.13778564 620.05018555 245.91229004 620.26318359 244.6496582 C621.96775293 234.97933615 624.13631341 225.45071948 626.51171875 215.92578125 C626.67739349 215.25800659 626.84306824 214.59023193 627.01376343 213.90222168 C633.4395451 188.2213777 633.4395451 188.2213777 641.44921875 182.11328125 C647.20333322 179.13721682 652.62010115 178.64646232 659.01171875 178.73828125 C659.82318359 178.72667969 660.63464844 178.71507812 661.47070312 178.703125 C667.89151387 178.73421851 672.87484019 179.56696999 677.62133789 184.26171875 C683.10874732 192.82228269 678.87533364 208.20846312 676.94921875 217.48828125 C676.68305607 218.82902993 676.41854225 220.17010679 676.15551758 221.51147461 C675.58110183 224.43298997 674.99915677 227.35287213 674.41259766 230.27197266 C672.77550905 238.4552992 671.23170105 246.65683687 669.67382812 254.85552979 C669.14481818 257.63325278 668.61197828 260.41021592 668.078125 263.18701172 C667.74736643 264.91373135 667.41663594 266.64045635 667.0859375 268.3671875 C666.93513229 269.14821335 666.78432709 269.9292392 666.62895203 270.7339325 C665.10890455 278.6964351 664.24553556 286.38283865 664.19921875 294.48828125 C664.17859375 295.38289063 664.15796875 296.2775 664.13671875 297.19921875 C664.09895597 303.69441746 664.57213366 310.56855701 668.82324219 315.80615234 C671.6841838 318.10607447 674.91522728 318.29794026 678.44921875 318.11328125 C685.75504971 316.16603572 691.18753822 310.22200595 696.44921875 305.11328125 C697.12057861 304.55882324 697.79193848 304.00436523 698.48364258 303.43310547 C703.64348142 298.90701242 705.37345559 295.61919972 705.96362305 288.79150391 C706.02074463 287.78394043 706.07786621 286.77637695 706.13671875 285.73828125 C706.33504667 283.59150005 706.54347503 281.4456293 706.76171875 279.30078125 C706.86742188 278.24890625 706.973125 277.19703125 707.08203125 276.11328125 C710.77227688 245.96318929 729.90710274 216.35942615 753.30761719 197.62548828 C769.30557593 185.67972731 787.49695994 177.90209536 807.63671875 177.67578125 C808.3313623 177.66554932 809.02600586 177.65531738 809.74169922 177.64477539 C814.34033647 177.72502986 817.58766879 178.61830036 821.44921875 181.11328125 C822.91015625 183.015625 822.91015625 183.015625 823.82421875 185.05078125 C824.29988281 186.05431641 824.29988281 186.05431641 824.78515625 187.078125 C825.44921875 189.11328125 825.44921875 189.11328125 825.44921875 193.11328125 C826.43921875 192.78328125 827.42921875 192.45328125 828.44921875 192.11328125 C832.38233728 191.85444605 836.32099061 191.88188056 840.26171875 191.86328125 C841.34259766 191.84265625 842.42347656 191.82203125 843.53710938 191.80078125 C853.8664429 191.75005401 853.8664429 191.75005401 858.44921875 195.11328125 C861.22761633 198.94443324 860.80175116 203.44607403 860.77709961 207.97851562 C860.77340583 208.86112816 860.76971205 209.74374069 860.76590633 210.65309906 C860.5897626 221.01326553 858.93203131 231.07508505 857.203125 241.26953125 C856.86787816 243.3162281 856.53399721 245.3631491 856.20140076 247.41027832 C855.33307556 252.73082006 854.44563673 258.04799461 853.55407715 263.36468506 C852.64648386 268.80095028 851.75917047 274.24052483 850.86914062 279.6796875 C849.56883621 287.60119161 848.26404299 295.52192935 846.93969727 303.43945312 C846.80303146 304.26326981 846.66636566 305.08708649 846.52555847 305.93586731 C845.94890538 309.3668144 845.32438756 312.74647706 844.44921875 316.11328125 C845.39539062 315.39785156 846.3415625 314.68242187 847.31640625 313.9453125 C856.94785088 306.68166991 866.66682142 299.5496809 876.47558594 292.52734375 C878.23277502 291.2683582 879.98590406 290.00394804 881.73828125 288.73828125 C882.63289063 288.09890625 883.5275 287.45953125 884.44921875 286.80078125 C885.19171875 286.26839844 885.93421875 285.73601562 886.69921875 285.1875 C888.44921875 284.11328125 888.44921875 284.11328125 890.44921875 284.11328125 C890.41441406 283.49066406 890.37960937 282.86804688 890.34375 282.2265625 C889.55450005 255.27931436 897.6171692 228.52389601 915.44921875 208.11328125 C915.98933594 207.43007812 916.52945313 206.746875 917.0859375 206.04296875 C928.68034352 191.72542137 948.17486654 181.26188849 966.44921875 179.11328125 C984.7560787 177.69996516 1000.07730856 178.72726808 1014.56640625 190.890625 C1025.68145025 201.14582598 1029.22883142 214.40225256 1029.82421875 229.11328125 C1028.96743044 248.81941229 1021.75858235 264.63139848 1007.44921875 278.11328125 C1006.66933594 278.850625 1005.88945312 279.58796875 1005.0859375 280.34765625 C991.94592088 291.74303201 973.69034196 298.07779019 957.26171875 302.98828125 C956.18289429 303.31155396 956.18289429 303.31155396 955.08227539 303.64135742 C951.69811717 304.61338144 949.00325081 305.11328125 945.44921875 305.11328125 C950.49792682 313.89114869 955.70500162 318.26719803 965.44921875 321.11328125 C977.95815803 323.1723022 990.3579719 322.04456189 1001.0859375 314.8984375 C1009.43775037 308.58971274 1016.02810592 301.34351714 1022.44921875 293.11328125 C1028.27498772 285.65273017 1028.27498772 285.65273017 1033.6328125 284.7421875 C1037.83287327 284.61844221 1039.85598713 284.69675692 1043.38671875 287.17578125 C1048.28876653 294.15748566 1048.18704511 301.81973935 1047.44921875 310.11328125 C1044.33981634 326.05129598 1034.39114974 339.24932953 1021.20703125 348.47265625 C1005.18438898 358.69333453 989.0689126 362.70046615 970.13671875 362.55078125 C969.46045441 362.54740753 968.78419006 362.54403381 968.08743286 362.54055786 C945.92440291 362.38074953 927.43841717 356.94959226 911.3046875 340.9921875 C907.61997279 337.03974973 904.57885133 332.89867074 901.7109375 328.3203125 C900.78800903 326.85235229 900.78800903 326.85235229 899.84643555 325.35473633 C899.385354 324.61505615 898.92427246 323.87537598 898.44921875 323.11328125 C880.89943861 334.71067911 880.89943861 334.71067911 863.69140625 346.8046875 C859.42040236 349.8458481 855.06344512 352.74734566 850.68334961 355.62841797 C847.60983213 357.65357418 844.59911556 359.72615902 841.6328125 361.90625 C838.44921875 364.11328125 838.44921875 364.11328125 836.44921875 364.11328125 C836.29271851 365.0573584 836.29271851 365.0573584 836.13305664 366.02050781 C827.97815357 414.35417368 816.08136258 473.20023778 784.44921875 512.11328125 C783.75183594 512.974375 783.05445312 513.83546875 782.3359375 514.72265625 C772.7350923 525.97764352 759.54051343 535.51666602 744.44921875 537.11328125 C730.17326249 538.04681964 716.80531439 536.76703997 705.44921875 527.11328125 C696.83190717 519.10590643 691.76761363 509.49193646 691.17578125 497.69921875 C690.26453176 464.9575182 705.89916217 437.81764855 727.44921875 414.11328125 C728.01463379 413.48760254 728.58004883 412.86192383 729.16259766 412.21728516 C740.97902091 399.1933442 740.97902091 399.1933442 747.33984375 393.90625 C749.65003551 391.94258701 751.8576457 389.89041908 754.07128906 387.81933594 C760.32391639 381.97126913 766.76450594 376.46620681 773.44921875 371.11328125 C774.81737363 370.00118907 776.18448727 368.88781516 777.55078125 367.7734375 C778.99609124 366.595049 780.44140373 365.41666358 781.88671875 364.23828125 C782.57354736 363.67826416 783.26037598 363.11824707 783.96801758 362.54125977 C784.6205249 362.01072998 785.27303223 361.4802002 785.9453125 360.93359375 C786.86304443 360.18251343 786.86304443 360.18251343 787.79931641 359.41625977 C789.44921875 358.11328125 789.44921875 358.11328125 791.875 356.5234375 C794.01901613 354.60286722 794.03533427 353.25278846 794.19921875 350.42578125 C794.2559375 349.61753906 794.31265625 348.80929687 794.37109375 347.9765625 C794.40976563 347.05423828 794.40976563 347.05423828 794.44921875 346.11328125 C794.05992187 346.54898437 793.670625 346.9846875 793.26953125 347.43359375 C784.05659086 357.24091739 773.58387578 362.06906856 760.22143555 362.515625 C746.13782083 362.70266185 734.88119214 359.76368135 724.2578125 350.125 C720.70269956 346.64845309 717.520887 343.02575935 714.44921875 339.11328125 C713.74539063 339.74234375 713.0415625 340.37140625 712.31640625 341.01953125 C694.33708886 356.60473588 676.38904131 363.81994692 652.44921875 362.11328125 C640.74931641 359.98933632 632.48603439 353.45847028 625.44921875 344.11328125 C622.44921875 338.8874748 622.44921875 338.8874748 622.44921875 336.11328125 C621.78672119 336.64115234 621.78672119 336.64115234 621.11083984 337.1796875 C602.74183944 351.73428208 585.89693995 362.24562021 561.76171875 362.36328125 C560.20420898 362.39421875 560.20420898 362.39421875 558.61523438 362.42578125 C547.90966121 362.47947691 539.45875209 360.44191467 531.44921875 353.11328125 C521.67183565 342.89147165 519.13837527 329.45070429 519.33789062 315.67626953 C519.52307295 311.41301503 520.00484571 307.2156653 520.57421875 302.98828125 C520.70038574 302.02398193 520.82655273 301.05968262 520.95654297 300.06616211 C521.78830856 294.03184907 522.80276139 288.04445192 523.94921875 282.0625 C524.08190155 281.36924622 524.21458435 280.67599243 524.35128784 279.96173096 C525.008946 276.54784009 525.68266482 273.13806127 526.37939453 269.73193359 C527.72967272 262.91160694 528.74169329 256.19825179 529.19140625 249.265625 C529.25909714 248.23629601 529.25909714 248.23629601 529.32815552 247.18617249 C529.57384128 243.53009948 529.57384128 243.53009948 528.44921875 240.11328125 C522.96640192 240.59705921 519.4734529 243.70941491 516.04980469 247.77514648 C497.11954723 273.13718753 486.61981556 303.68606923 478.68066406 333.9753418 C473.30071521 354.21228361 473.30071521 354.21228361 464.44921875 360.11328125 C460.18955681 362.26209467 456.1969975 362.44753278 451.51171875 362.42578125 C450.4762793 362.44995117 450.4762793 362.44995117 449.41992188 362.47460938 C443.73825675 362.47999484 439.92116221 361.08785178 435.5078125 357.5625 C422.69001541 343.63279762 423.73126782 323.76562788 424.44921875 306.11328125 C425.12198434 296.76751149 426.29942627 287.47250934 427.44921875 278.17578125 C427.8821471 274.59540571 428.31076843 271.01460292 428.7331543 267.43296814 C428.99344635 265.23388017 429.26006612 263.03552749 429.53442383 260.83815002 C431.31398346 250.26907182 431.31398346 250.26907182 429.44921875 240.11328125 C424.64267851 240.53738774 421.75085749 242.78737335 418.44921875 246.11328125 C416.48653198 248.63901069 414.83275121 251.30316093 413.19921875 254.05078125 C412.72669678 254.84307129 412.2541748 255.63536133 411.76733398 256.45166016 C397.72612021 280.54039245 389.02773583 307.71044571 382.07421875 334.61328125 C377.01553554 354.18177512 377.01553554 354.18177512 368.44921875 360.11328125 C364.24183115 362.34823419 360.18354735 362.44747033 355.51171875 362.42578125 C354.4762793 362.44995117 354.4762793 362.44995117 353.41992188 362.47460938 C347.86173656 362.4798778 343.91981399 361.23250294 339.69140625 357.60546875 C334.47429258 351.43436858 331.9406323 344.72957618 329.44921875 337.11328125 C328.47984375 337.74234375 327.51046875 338.37140625 326.51171875 339.01953125 C303.80983971 353.58866809 282.28094443 362.56411329 254.88671875 362.48828125 C254.18156128 362.48806976 253.47640381 362.48785828 252.74987793 362.48764038 C229.55814274 362.41828475 208.11812085 356.80057243 190.828125 340.51171875 C176.49291211 326.05881117 170.93041187 308.96282617 168.44921875 289.11328125 C161.18921875 289.77328125 153.92921875 290.43328125 146.44921875 291.11328125 C146.05734375 292.84578125 145.66546875 294.57828125 145.26171875 296.36328125 C139.81587473 318.01941798 126.80718619 338.58667926 107.94921875 350.98828125 C94.89555847 358.72789826 82.24223963 362.69462492 67.01171875 362.48828125 C65.36659302 362.47196655 65.36659302 362.47196655 63.68823242 362.45532227 C43.94966102 362.0666811 28.49038267 354.81344547 14.44921875 341.11328125 C12.51051586 338.83175894 10.9920852 336.68472534 9.44921875 334.11328125 C5.71838088 335.7109577 3.0500202 338.07512964 0.01171875 340.73828125 C-20.53359091 358.26624721 -41.96758408 364.14752175 -68.55078125 362.11328125 C-73.16063457 361.44931881 -77.32237825 360.06386473 -81.55078125 358.11328125 C-82.34871094 357.76265625 -83.14664062 357.41203125 -83.96875 357.05078125 C-101.54121532 348.34016161 -110.41747321 330.82524085 -116.55078125 313.11328125 C-120.00730333 302.35471735 -122.02961104 291.29301093 -123.55078125 280.11328125 C-123.64794434 279.43289795 -123.74510742 278.75251465 -123.84521484 278.05151367 C-133.32968056 200.37935859 -114.7027975 86.27884763 -67.55078125 23.11328125 C-64.14278186 18.84714369 -60.43197329 14.94867752 -56.55078125 11.11328125 C-55.80054688 10.35273438 -55.0503125 9.5921875 -54.27734375 8.80859375 C-41.10232371 -3.7956673 -16.13652725 -11.93559366 0 0 Z M-33.55078125 37.11328125 C-71.07500816 83.40573204 -74.86253364 177.83639283 -76.55078125 235.11328125 C-72.31417319 230.35728133 -69.53412592 224.88191971 -66.55078125 219.30078125 C-65.98190186 218.24052734 -65.41302246 217.18027344 -64.8269043 216.08789062 C-54.72551741 197.15705016 -45.35330178 178.11528727 -37.55078125 158.11328125 C-37.15761719 157.1068457 -36.76445313 156.10041016 -36.359375 155.06347656 C-25.0817622 125.83659388 -17.31218673 95.62408992 -17.11328125 64.17578125 C-17.10304932 62.93787842 -17.09281738 61.69997559 -17.08227539 60.42456055 C-17.17430788 47.27431903 -17.17430788 47.27431903 -23.05078125 35.92578125 C-27.29296422 32.8501986 -29.58884416 34.31260158 -33.55078125 37.11328125 Z M778.703125 232.42578125 C763.15412189 250.96601372 755.25656572 273.04807785 754.94921875 297.17578125 C754.93060791 298.12727051 754.91199707 299.07875977 754.89282227 300.05908203 C754.95000418 306.37352024 755.97578411 311.74049705 759.44921875 317.11328125 C763.27008442 320.64725426 766.83820956 322.39253887 772.07421875 322.61328125 C779.2210204 322.12461105 783.67969784 318.57215045 788.49609375 313.53515625 C798.38072462 301.27821397 800.96304362 284.64893554 803.68359375 269.56640625 C803.96869003 268.01784488 804.25444881 266.46940534 804.54083252 264.92108154 C805.28417863 260.89182426 806.01815477 256.86091639 806.75018311 252.82958984 C807.50174647 248.70166101 808.26327492 244.57557088 809.0234375 240.44921875 C810.12669906 234.44908722 811.22796186 228.44859537 812.31933594 222.44628906 C812.53821472 221.24417786 812.75709351 220.04206665 812.98260498 218.80352783 C813.47770124 216.40413521 813.47770124 216.40413521 813.44921875 215.11328125 C800.15273126 214.50889545 787.48366104 223.12689514 778.703125 232.42578125 Z M229.44921875 229.11328125 C220.19477428 241.58863532 215.7317871 258.68850072 216.44921875 274.11328125 C232.56246818 271.72481286 249.1476192 264.00608068 259.44921875 251.11328125 C263.98814648 244.10352236 266.48313792 237.29813814 264.76171875 228.92578125 C263.50942401 224.64780793 261.51843538 221.38526723 257.64453125 219.00390625 C246.46712211 214.46929898 236.38842928 220.63566083 229.44921875 229.11328125 Z M951.44921875 229.11328125 C942.19477428 241.58863532 937.7317871 258.68850072 938.44921875 274.11328125 C954.56246818 271.72481286 971.1476192 264.00608068 981.44921875 251.11328125 C985.98814648 244.10352236 988.48313792 237.29813814 986.76171875 228.92578125 C985.50942401 224.64780793 983.51843538 221.38526723 979.64453125 219.00390625 C968.46712211 214.46929898 958.38842928 220.63566083 951.44921875 229.11328125 Z M57.5390625 229.828125 C44.64012722 243.23734783 42.97703801 261.81638259 43.09545898 279.46655273 C43.25649181 286.67864586 43.79319722 293.33881338 46.44921875 300.11328125 C46.77792969 300.98726563 47.10664062 301.86125 47.4453125 302.76171875 C50.59303919 310.01564945 55.71187734 315.78656768 62.875 319.3046875 C69.52728535 321.39425209 76.4541158 320.98275571 82.76171875 318.05078125 C93.51027262 311.83516384 99.6812687 301.4244906 102.88671875 289.55078125 C103.37590854 286.56128807 103.75647588 284.11383917 103.44921875 281.11328125 C102.01794955 279.66950097 102.01794955 279.66950097 100.01171875 278.61328125 C89.22622569 271.11698111 83.79578585 258.15850998 80.90063477 245.76489258 C80.42744473 242.98538094 80.33581906 240.41182645 80.3515625 237.59375 C80.35478516 236.57216797 80.35800781 235.55058594 80.36132812 234.49804688 C80.37389648 232.91540039 80.37389648 232.91540039 80.38671875 231.30078125 C80.39123047 230.22634766 80.39574219 229.15191406 80.40039062 228.04492188 C80.41214146 225.40098442 80.42857088 222.75716173 80.44921875 220.11328125 C71.13050708 220.11328125 64.38086658 223.68589189 57.5390625 229.828125 Z M795.44921875 343.11328125 C796.44921875 345.11328125 796.44921875 345.11328125 796.44921875 345.11328125 Z M783.44921875 404.11328125 C778.09554722 409.09181664 772.76486547 414.0941766 767.44921875 419.11328125 C766.49144531 420.01433594 765.53367187 420.91539062 764.546875 421.84375 C748.02957491 437.82564328 730.72087158 460.16128984 730.07421875 483.92578125 C730.1925828 488.67161619 730.57312947 492.17197372 733.44921875 496.11328125 C736.53919503 498.17326544 738.49986176 498.79306657 742.20703125 498.6640625 C749.33681565 496.91266947 753.84502773 489.88214173 757.57421875 484.05078125 C769.08060063 464.10184698 775.7069005 442.35520412 781.57421875 420.17578125 C781.88166016 419.0269043 782.18910156 417.87802734 782.50585938 416.69433594 C782.77849609 415.62731445 783.05113281 414.56029297 783.33203125 413.4609375 C783.57324707 412.52258057 783.81446289 411.58422363 784.06298828 410.61743164 C784.45587223 408.07014296 784.27566427 406.52923573 783.44921875 404.11328125 Z " fill="#654B56" transform="translate(1639.55078125,5.88671875)"/>
<path d="M0 0 C3.49486751 1.19780853 5.80633317 3.37724521 8.25775146 6.02415466 C9.04609879 6.82592384 9.04609879 6.82592384 9.85037231 7.64389038 C11.51376864 9.34511717 13.14699985 11.07224768 14.78118896 12.80149841 C15.8835234 13.93544391 16.98767819 15.06762278 18.09368896 16.19798279 C23.10143438 21.34257622 27.98621968 26.57350285 32.66644287 32.01951599 C35.04655014 34.76666373 37.54491693 37.40081364 40.03118896 40.05149841 C44.51683352 44.8734789 48.77719388 49.81734864 52.89837646 54.95774841 C54.88326689 57.40280374 56.92136185 59.78985487 58.98577881 62.16770935 C65.94566261 70.22125343 72.22442303 78.74142703 78.44818115 87.37083435 C79.54171014 88.88701948 80.63842254 90.4009168 81.73919678 91.91184998 C112.63799564 134.33560275 140.73221675 185.98879408 149.72259521 238.22221375 C150.02164868 239.95806249 150.33418348 241.69162407 150.65769958 243.42308044 C152.25680463 252.63752732 152.50050467 261.69145727 152.52728271 271.00852966 C152.53628703 272.65881411 152.54540928 274.30909792 152.55464172 275.9593811 C152.57102643 279.40604103 152.57881131 282.85260514 152.58172607 286.29930115 C152.58601276 289.78138451 152.60673706 293.26272079 152.64324951 296.74461365 C152.84860822 316.67966593 152.51432207 335.36720748 147.15618896 354.73899841 C146.76054035 356.28085849 146.36750679 357.8233927 145.97747803 359.36668396 C133.90605777 407.00502383 100.64189297 454.63601407 61.84368896 484.58665466 C59.44826438 486.50508336 57.19679301 488.50129938 54.92572021 490.56321716 C50.4528883 494.55995061 45.77313676 498.07874795 40.84368896 501.48899841 C39.99282715 502.08172546 39.14196533 502.67445251 38.26531982 503.28514099 C29.78306742 509.121111 21.00603401 514.43748602 12.09979248 519.59739685 C10.52352227 520.52324028 8.97559678 521.49722357 7.43743896 522.48509216 C2.61202736 525.13741601 -2.44669019 525.81739431 -7.84381104 524.73899841 C-14.99707369 522.09529866 -21.44064489 517.81480371 -27.84381104 513.73899841 C-28.72730225 513.18131775 -29.61079346 512.62363708 -30.52105713 512.04905701 C-58.75156354 494.08138191 -86.46540131 472.54103729 -106.84381104 445.73899841 C-107.77025402 444.56401407 -108.69738527 443.3895722 -109.62506104 442.21556091 C-150.19501993 390.24419292 -167.54633216 322.8650704 -159.84381104 257.73899841 C-155.31819207 224.6623808 -144.27559827 193.70136246 -129.84381104 163.73899841 C-129.41374756 162.83117615 -128.98368408 161.92335388 -128.54058838 160.98802185 C-111.28610374 124.63435776 -88.62526625 90.58728221 -62.84381104 59.73899841 C-62.35106689 59.14715759 -61.85832275 58.55531677 -61.35064697 57.94554138 C-56.06727396 51.6086915 -50.69163616 45.36501208 -45.13580322 39.2641449 C-43.72438705 37.70915156 -42.31863897 36.14896393 -40.92242432 34.58030701 C-34.80404175 27.70921314 -28.54023104 20.986691 -22.12359619 14.39402771 C-20.92719389 13.15544771 -19.74075979 11.90716835 -18.56402588 10.64988708 C-16.8371042 8.807504 -15.07958873 6.9998783 -13.31256104 5.19602966 C-12.53870056 4.34945549 -12.53870056 4.34945549 -11.74920654 3.48577881 C-7.99419096 -0.25106281 -5.23090206 -0.97454353 0 0 Z " fill="#FFE5F1" transform="translate(487.84381103515625,21.261001586914063)"/>
<path d="M0 0 C0.67289063 0.55945312 1.34578125 1.11890625 2.0390625 1.6953125 C14.00880573 12.57192849 21.95708105 29.83645407 23.22143555 45.79492188 C24.158009 69.26317599 19.71521362 89.89419278 4 108 C3.2575 108.99 2.515 109.98 1.75 111 C-13.06089602 128.40761155 -41.32987492 142.25997216 -64 145 C-64 145.66 -64 146.32 -64 147 C-62.72382812 147.1546875 -62.72382812 147.1546875 -61.421875 147.3125 C-50.55657589 149.49548247 -41.55399401 156.20232877 -34 164 C-33.34257813 164.66 -32.68515625 165.32 -32.0078125 166 C-21.11963678 177.58913124 -18.2607918 192.03032062 -18.71484375 207.46484375 C-19.90195079 230.90399907 -31.12329064 249.87494573 -47.8125 265.66015625 C-79.99621614 293.9520915 -128.42193409 302.20842581 -169.87890625 302.1328125 C-171.05339828 302.13376923 -172.22789032 302.13472595 -173.43797302 302.13571167 C-175.89590509 302.13638697 -178.35383902 302.13457849 -180.81176758 302.13037109 C-184.58353615 302.12496988 -188.35518799 302.13036033 -192.12695312 302.13671875 C-194.52343776 302.1360587 -196.91992233 302.13477906 -199.31640625 302.1328125 C-200.44446182 302.13483673 -201.5725174 302.13686096 -202.73475647 302.13894653 C-203.77691818 302.13579437 -204.8190799 302.13264221 -205.89282227 302.12939453 C-207.26749413 302.12820114 -207.26749413 302.12820114 -208.66993713 302.12698364 C-211 302 -211 302 -214 301 C-214.07476563 301.56847656 -214.14953125 302.13695312 -214.2265625 302.72265625 C-215.27954998 308.90637683 -217.18884373 312.90358313 -222 317 C-231.99592206 323.73409486 -245.19353056 324.57875082 -256.7890625 322.5 C-261.65865265 321.06680959 -264.83884187 319.09091052 -268 315 C-270.81123812 309.55689214 -271.43879039 305.35036277 -271.2890625 299.2734375 C-271.27799469 298.44613129 -271.26692688 297.61882507 -271.25552368 296.76644897 C-271.07469649 287.68033853 -270.28915744 278.66223421 -269.375 269.625 C-269.28730347 268.73526489 -269.19960693 267.84552979 -269.10925293 266.92883301 C-263.26759003 207.90126016 -252.95403433 149.62464372 -238.6875 92.0625 C-238.48062561 91.22301819 -238.27375122 90.38353638 -238.06060791 89.51861572 C-231.14247454 61.57720884 -231.14247454 61.57720884 -224 56 C-212.73894422 50.00266247 -197.56587998 48.83716579 -185.25 52.25 C-181.59251576 53.57093128 -178.73855489 55.17310463 -176 58 C-172.96058923 67.11823232 -176.11059676 75.95578495 -178.81570435 84.7623291 C-180.00722093 88.65863032 -181.1416042 92.57151635 -182.27734375 96.484375 C-182.51021591 97.28518494 -182.74308807 98.08599487 -182.98301697 98.91107178 C-193.75224018 136.20976005 -200.48541195 174.86634134 -205.9375 213.25 C-206.08115997 214.26063507 -206.22481995 215.27127014 -206.37283325 216.31253052 C-207.91227977 227.23505726 -209.31488691 238.15721555 -210.35716248 249.13946533 C-210.6607213 252.25631515 -211.00575197 255.01725592 -212 258 C-147.64510124 260.63427241 -147.64510124 260.63427241 -91 234 C-83.20071458 226.08186832 -78.46140722 215.78831588 -77.93359375 204.65625 C-78.18909135 194.43634603 -81.68609286 186.34652611 -88.5625 178.8125 C-101.1328787 167.0380112 -118.80841695 164.75798737 -135.28662109 163.77050781 C-141.0809359 163.38021171 -145.7019751 162.43697199 -151 160 C-155.63246839 154.17205589 -155.51852232 147.66670084 -154.7265625 140.5390625 C-153.74839993 134.5408958 -152.12650243 129.55642299 -148 125 C-141.54936183 120.8253546 -134.79811816 120.33916558 -127.3125 120 C-99.28222589 118.20162038 -68.76670647 112.56143425 -48 92 C-39.03857551 81.53104616 -34.98671277 69.70701269 -36 56 C-38.23009108 44.05935485 -44.88603794 35.55130814 -54.61328125 28.5390625 C-91.91427521 4.48572106 -150.21092801 12.45740276 -191 21 C-220.82910318 27.86818771 -249.84333061 38.53475259 -276.08984375 54.40625 C-281.06956736 57.13340065 -285.39188699 58.29054924 -291.0625 58.3125 C-292.06410156 58.32925781 -293.06570313 58.34601563 -294.09765625 58.36328125 C-297.45938982 57.94249899 -299.28197483 56.99290658 -302 55 C-307.28019555 48.10641136 -307.64424331 42.13615348 -306.76171875 33.73046875 C-305.14455265 24.40317741 -300.25336149 18.46721682 -292.6875 13 C-224.18092951 -34.18717354 -89.92294448 -55.65934803 0 0 Z " fill="#654B56" transform="translate(1487,63)"/>
<path d="M0 0 C-1.07974508 3.23923523 -1.49327662 3.62925165 -4.140625 5.49609375 C-4.79264893 5.96587646 -5.44467285 6.43565918 -6.11645508 6.91967773 C-6.8205249 7.42055908 -7.52459473 7.92144043 -8.25 8.4375 C-42.98541262 33.88686261 -64.02045203 71.24831653 -70.79638672 113.67333984 C-73.65320018 133.52626692 -74.45779525 153.57082958 -75.58239746 173.57775879 C-76.70313067 193.47527319 -77.97981008 213.32411671 -80.01171875 233.15234375 C-80.13353421 234.35457832 -80.13353421 234.35457832 -80.25781059 235.58110046 C-82.50094279 257.49695996 -86.50970328 278.92355218 -93 300 C-93.25475098 300.83015625 -93.50950195 301.6603125 -93.77197266 302.515625 C-103.48482909 333.49933254 -119.59225231 360.63668224 -142 384 C-142.50934082 384.53657227 -143.01868164 385.07314453 -143.54345703 385.62597656 C-180.31433392 424.19745999 -232.00752055 442.12940713 -284 448 C-285.24934326 448.1544458 -285.24934326 448.1544458 -286.52392578 448.31201172 C-310.51172786 451.1927324 -334.88925624 450.18756936 -359 450 C-359 449.34 -359 448.68 -359 448 C-358.30253662 447.72438232 -357.60507324 447.44876465 -356.88647461 447.16479492 C-308.8105827 428.08468761 -262.40115788 403.43914065 -231 361 C-230.60039063 360.46117187 -230.20078125 359.92234375 -229.7890625 359.3671875 C-213.95635161 337.79644716 -204.12047831 314.02577285 -198.75 287.875 C-198.59901855 287.14974121 -198.44803711 286.42448242 -198.29248047 285.67724609 C-195.57677771 271.58437145 -194.67804262 257.18592633 -194 242.875 C-193.91729182 241.22322313 -193.834526 239.57144915 -193.75170898 237.91967773 C-193.13905713 225.38085358 -192.71280555 212.83753995 -192.30126953 200.29077148 C-189.85543603 125.89551517 -189.85543603 125.89551517 -184 104 C-183.80067871 103.24783203 -183.60135742 102.49566406 -183.39599609 101.72070312 C-178.66862583 84.58717024 -170.42370939 68.62133806 -159 55 C-158.26652344 54.0925 -157.53304687 53.185 -156.77734375 52.25 C-142.5624481 35.54334468 -122.50088779 24.18005746 -102 17 C-101.33242676 16.75685059 -100.66485352 16.51370117 -99.97705078 16.26318359 C-70.04791141 5.5438572 -31.6879636 0 0 0 Z " fill="#FFE5F1" transform="translate(875,106)"/>
<path d="M0 0 C123.33790592 13.17848563 123.33790592 13.17848563 159.375 54.9375 C189.41817864 92.79878895 190.08867536 139.43679612 191.74609375 185.5859375 C191.7776462 186.46049088 191.80919865 187.33504425 191.84170723 188.23609924 C192.16193573 197.14822492 192.47005943 206.06054248 192.74304771 214.97424793 C193.25006562 231.40792108 193.85453664 247.79073428 195.44921875 264.16015625 C195.56700684 265.37377838 195.68479492 266.58740051 195.80615234 267.83779907 C200.54380699 313.10532761 218.64782843 350.28419646 250 383 C250.71027344 383.75152344 251.42054688 384.50304687 252.15234375 385.27734375 C266.88249688 400.48946508 285.19265382 412.56390167 303.66162109 422.71337891 C305.89481957 423.9421277 308.11325102 425.19468658 310.33203125 426.44921875 C325.64934696 434.94384784 342.36754293 442.45584764 359 448 C359 448.66 359 449.32 359 450 C287.70611719 450.6137884 210.78984104 446.32340128 155 396 C153.64658034 394.85328443 152.29250543 393.70734133 150.9375 392.5625 C140.81580212 383.58906196 131.96426397 373.92343577 124 363 C123.58008789 362.42443359 123.16017578 361.84886719 122.72753906 361.25585938 C85.46593656 309.42121795 79.88976529 244.98431528 76.15846252 183.28186035 C76.03061273 181.16915674 75.90203157 179.05649864 75.77331543 176.94384766 C75.38852068 170.61557095 75.00758072 164.28721905 74.64838886 157.95743179 C73.04080187 127.07368375 73.04080187 127.07368375 67.3125 96.75 C67.05758789 95.76950684 66.80267578 94.78901367 66.54003906 93.77880859 C56.73506181 57.54022181 35.59888994 27.15485417 4.82519531 5.62866211 C3.1833337 4.46493665 1.58682372 3.2377225 0 2 C0 1.34 0 0.68 0 0 Z " fill="#FFE5F1" transform="translate(95,106)"/>
<path d="M0 0 C0.83588654 -0.00100708 1.67177307 -0.00201416 2.5329895 -0.00305176 C15.3793307 0.00738955 27.83814611 0.53197037 40.4375 3.25 C41.43233398 3.45085205 41.43233398 3.45085205 42.44726562 3.65576172 C58.04042225 6.88801152 72.70244909 13.76073317 85.4375 23.25 C86.31921875 23.87455078 86.31921875 23.87455078 87.21875 24.51171875 C103.5300725 36.87535416 109.08617312 57.59279772 111.7902832 76.85131836 C112.20552784 79.92887572 112.59764101 83.00908309 112.98828125 86.08984375 C113.20910094 87.77247313 113.43092782 89.45497059 113.65368652 91.13734436 C114.12032368 94.67002541 114.58230232 98.20326678 115.04043579 101.73706055 C116.22753872 110.87928798 117.45612399 120.01599024 118.6875 129.15234375 C118.80750681 130.04383495 118.92751362 130.93532616 119.051157 131.85383224 C122.83295166 159.89714763 126.98368916 187.90926023 134.4375 215.25 C134.78264648 216.54309082 134.78264648 216.54309082 135.13476562 217.86230469 C142.19200952 243.99398667 153.28445908 270.3940117 169.4375 292.25 C170.20449219 293.29929687 170.97148437 294.34859375 171.76171875 295.4296875 C177.51045979 303.16275975 183.79412823 310.27927367 190.4375 317.25 C191.20320312 318.08015625 191.96890625 318.9103125 192.7578125 319.765625 C216.27921521 344.48303124 248.06976352 359.25948518 279.4375 371.25 C279.4375 371.91 279.4375 372.57 279.4375 373.25 C276.89768951 373.88341521 274.35599116 374.50666853 271.8125 375.125 C271.11898438 375.29902344 270.42546875 375.47304688 269.7109375 375.65234375 C256.87871517 378.74582592 244.20261902 379.65789686 231.0625 379.625 C230.27813568 379.62478851 229.49377136 379.62457703 228.68563843 379.62435913 C214.9681123 379.58764077 201.82050288 378.42921423 188.4375 375.25 C187.65971191 375.06808105 186.88192383 374.88616211 186.08056641 374.69873047 C165.01150658 369.57901756 144.81017817 359.47994512 128.4375 345.25 C127.60734375 344.54101562 126.7771875 343.83203125 125.921875 343.1015625 C93.9936293 315.18883237 81.76472107 274.93901207 71.24609375 235.27734375 C70.8976645 233.97136073 70.8976645 233.97136073 70.54219627 232.63899422 C65.28603852 212.9331528 60.32451602 193.15499947 55.41369629 173.36077881 C54.30121105 168.87983887 53.1845998 164.39992754 52.06835938 159.91992188 C51.62529073 158.14088544 51.18224658 156.36184291 50.73922729 154.58279419 C50.08530275 151.9568203 49.4313282 149.33085895 48.77713394 146.70495224 C46.75241943 138.57721075 44.72828571 130.44943082 42.73546696 122.31379986 C42.02717803 119.42450129 41.31484877 116.53620656 40.60201073 113.64802742 C40.12946633 111.72648919 39.66275885 109.80351833 39.19636536 107.88047791 C34.4451261 88.65461127 28.19928794 69.54289478 18.4375 52.25 C17.85355469 51.17105469 17.26960938 50.09210938 16.66796875 48.98046875 C12.87043859 42.16548798 8.46101795 36.20302543 3.4375 30.25 C2.77041016 29.36441406 2.77041016 29.36441406 2.08984375 28.4609375 C-6.72000227 17.09165609 -20.0700545 9.82070186 -32.5625 3.25 C-32.5625 2.59 -32.5625 1.93 -32.5625 1.25 C-21.69786627 0.30343076 -10.90014678 0.00917873 0 0 Z " fill="#FFE5F1" transform="translate(32.5625,191.75)"/>
<path d="M0 0 C2.50982793 0.00532975 5.01947459 0.00004492 7.52929688 -0.00634766 C16.99547087 -0.00984898 26.3449409 0.28270792 35.77929688 1.13037109 C35.77929688 1.79037109 35.77929688 2.45037109 35.77929688 3.13037109 C34.85890625 3.58025391 33.93851563 4.03013672 32.99023438 4.49365234 C-0.3527946 21.24510483 -17.71878353 50.16105074 -29.40820312 84.69287109 C-29.78783203 85.80670166 -30.16746094 86.92053223 -30.55859375 88.06811523 C-34.63187032 100.55862635 -37.60873319 113.34775502 -40.72476578 126.10271835 C-41.57652241 129.58514747 -42.43343312 133.06630846 -43.28979492 136.54760742 C-44.56677063 141.74090431 -45.84232009 146.9345482 -47.11628342 152.12858486 C-69.07276842 241.63896879 -69.07276842 241.63896879 -79.22070312 272.13037109 C-79.55134766 273.13422852 -79.88199219 274.13808594 -80.22265625 275.17236328 C-86.89139617 295.19846994 -95.74536643 312.81668038 -109.22070312 329.13037109 C-109.8783667 329.92677002 -109.8783667 329.92677002 -110.54931641 330.73925781 C-133.66886867 358.28879739 -168.21369854 373.24975561 -203.22070312 378.13037109 C-203.87603027 378.22463379 -204.53135742 378.31889648 -205.20654297 378.41601562 C-228.81003017 381.46673224 -253.28370585 379.13058745 -276.22070312 373.13037109 C-276.22070312 372.47037109 -276.22070312 371.81037109 -276.22070312 371.13037109 C-275.38112061 370.78893066 -274.54153809 370.44749023 -273.67651367 370.09570312 C-242.50177016 357.36479001 -215.07088576 343.34667322 -190.22070312 320.13037109 C-189.35703125 319.33244141 -188.49335937 318.53451172 -187.60351562 317.71240234 C-132.63883638 265.05783281 -122.65555103 184.81100412 -113.24921036 113.27394485 C-112.9550603 111.04039201 -112.65919424 108.80707311 -112.36276245 106.57382202 C-112.16483356 105.08160697 -111.96692707 103.58938896 -111.76904297 102.09716797 C-111.67099806 101.35820597 -111.57295315 100.61924397 -111.47193718 99.85788918 C-110.98628832 96.1867808 -110.50765047 92.51499012 -110.04376221 88.84106445 C-106.81791645 63.29898462 -103.2210828 39.52558244 -81.72070312 22.63037109 C-57.51205126 5.14466987 -29.30687461 -0.07389243 0 0 Z " fill="#FFE5F1" transform="translate(946.220703125,191.86962890625)"/>
<path d="M0 0 C16.00688018 4.94540925 28.98845301 15.68656001 41 27 C41.64066406 27.57621094 42.28132813 28.15242188 42.94140625 28.74609375 C53.03064449 38.20343816 61.20730049 50.1380843 68.21875 61.9921875 C70.54821305 65.92571063 73.04887433 69.73967805 75.5546875 73.5625 C78.78962676 79.01818135 79.87504452 83.71762907 79 90 C77.4204945 93.09319827 75.45340701 95.46683496 73.21240234 98.10205078 C68.27480838 104.03704113 64.55121472 110.03653892 61.125 116.9375 C60.09039168 118.97293485 59.0552272 121.0080871 58.01953125 123.04296875 C57.51244629 124.04763184 57.00536133 125.05229492 56.48291016 126.08740234 C54.71586467 129.55807285 52.88940745 132.99418544 51.05249023 136.42822266 C47.23970552 143.56734111 43.571494 150.76909888 40.0625 158.0625 C39.69680908 158.81176758 39.33111816 159.56103516 38.9543457 160.33300781 C36.38829094 165.74470152 34.58212398 171.22746682 33 177 C32.34 177 31.68 177 31 177 C30.78907715 176.48203857 30.5781543 175.96407715 30.36083984 175.43041992 C16.98106246 142.72147418 -1.52844905 121.44882545 -32.38647461 104.14672852 C-40.42261486 99.53164037 -40.42261486 99.53164037 -42 95 C-42.51868079 88.84066562 -41.46191427 83.34613532 -40 77.375 C-39.77852295 76.46766113 -39.5570459 75.56032227 -39.32885742 74.62548828 C-32.07074598 46.08785806 -18.87850963 22.34412976 0 0 Z " fill="#FFE5F1" transform="translate(280,12)"/>
<path d="M0 0 C3.03301685 1.82107916 4.95810802 4.52574651 7.0546875 7.30859375 C7.53591064 7.93717285 8.01713379 8.56575195 8.51293945 9.21337891 C25.48413842 31.68292142 41.04174516 61.37307679 42.1796875 90.12109375 C42.21707031 90.73984375 42.25445313 91.35859375 42.29296875 91.99609375 C41.19224672 97.48960552 36.96906427 101.21768943 32.8046875 104.62109375 C32.3008252 105.03415771 31.79696289 105.44722168 31.27783203 105.87280273 C25.59539711 110.46246171 19.65030706 114.70471903 13.74487305 119 C8.49967371 122.84110954 3.5804282 126.7897364 -1.14453125 131.26171875 C-2.9274035 132.92900204 -4.76159943 134.38697989 -6.6953125 135.87109375 C-17.90623011 145.56984108 -24.34717723 161.28765521 -31.1328125 174.12109375 C-31.7928125 174.12109375 -32.4528125 174.12109375 -33.1328125 174.12109375 C-33.35831787 173.46850586 -33.58382324 172.81591797 -33.81616211 172.14355469 C-42.5183617 147.10472391 -51.75481392 123.49261781 -69.1328125 103.12109375 C-70.04975127 101.99631552 -70.96645585 100.87134629 -71.8828125 99.74609375 C-74.00782455 97.11935781 -74.00782455 97.11935781 -76.3828125 95.24609375 C-78.92683899 92.15691873 -79.24875124 89.01092233 -79.1328125 85.12109375 C-78.2621309 81.93914826 -76.88145151 79.11458464 -75.3828125 76.18359375 C-74.97595215 75.36093018 -74.5690918 74.5382666 -74.14990234 73.69067383 C-59.37872795 44.54792359 -37.73977354 20.30055246 -9.4453125 3.87109375 C-8.43803101 3.27772217 -8.43803101 3.27772217 -7.41040039 2.67236328 C-4.95380527 1.30323681 -2.84075022 0.16128802 0 0 Z " fill="#FFE5F1" transform="translate(689.1328125,11.87890625)"/>
<path d="M0 0 C5.42307047 2.19230508 8.72285634 6.71512908 11 12 C14.43596084 28.68895267 7.56262085 44.98714944 -1.39453125 58.8046875 C-6.61229373 66.47713713 -12.65341173 73.24464842 -19 80 C-20.19425061 81.36914087 -21.3823797 82.74366104 -22.5625 84.125 C-28.27839253 90.68620058 -34.50161283 96.6594861 -41.1015625 102.3203125 C-43.55846911 104.49411876 -45.83411911 106.82075161 -48.12963867 109.16235352 C-49.91252089 110.914051 -51.75047004 112.53947421 -53.65234375 114.16015625 C-58.32350951 118.22311409 -62.69747174 122.55025786 -67.0625 126.9375 C-67.82626953 127.69740234 -68.59003906 128.45730469 -69.37695312 129.24023438 C-74.84391257 134.71654705 -80.2886119 140.24577032 -84.828125 146.53125 C-87.10092529 149.67820425 -88.80499749 151.65780288 -92.60546875 152.74609375 C-97.75540179 153.09415819 -101.34463062 152.32446319 -105.4375 149.125 C-111.71997835 142.79102593 -114.08652498 133.87091352 -114.25 125.125 C-114.16296655 117.89155366 -112.71105827 111.00368039 -111 104 C-110.8443457 103.35853027 -110.68869141 102.71706055 -110.52832031 102.05615234 C-104.62704256 78.5276048 -92.59220209 41.59220209 -75 24 C-82.0620845 23.46701249 -87.53708108 25.17176307 -94 28 C-94.33 28.33 -94.66 28.66 -95 29 C-98.74405478 29.55175544 -102.44381186 29.8173257 -105.859375 28.0234375 C-108.63257947 25.78565369 -111.02595121 23.46328457 -112 20 C-111.91322321 16.61570516 -111.11215295 15.14833132 -109.0625 12.4375 C-105.00558524 9.20852703 -100.88114721 7.64218441 -96 6 C-94.205625 5.38125 -94.205625 5.38125 -92.375 4.75 C-88.25669558 3.81325453 -84.08158998 3.75422588 -79.875 3.6875 C-79.19356934 3.66977539 -78.51213867 3.65205078 -77.81005859 3.63378906 C-71.73125924 3.6426697 -67.8407281 5.33457934 -63.375 9.375 C-58.23148617 15.05993634 -54.67042298 19.40275085 -54.9375 27.375 C-55.58034596 32.00159751 -57.10842674 36.00939291 -59.0078125 40.2421875 C-59.31533951 40.93580383 -59.62286652 41.62942017 -59.93971252 42.34405518 C-63.30489366 49.8356361 -67.02852992 57.14151422 -70.76559448 64.45245361 C-87.42465839 95.66269037 -87.42465839 95.66269037 -93 130 C-92.67 130.99 -92.34 131.98 -92 133 C-91.45214844 132.2471875 -90.90429688 131.494375 -90.33984375 130.71875 C-84.2870787 122.55670779 -77.6389234 115.158258 -70.61328125 107.82421875 C-68.18530721 105.28330812 -65.83644849 102.69517523 -63.53515625 100.0390625 C-59.85850322 95.79780085 -56.00004753 91.74680704 -52.125 87.6875 C-46.11227161 81.3317567 -40.32508309 74.95083971 -35 68 C-34.36118896 67.17000488 -34.36118896 67.17000488 -33.70947266 66.32324219 C-28.42389622 59.4169555 -23.4456703 52.37820543 -18.9375 44.9375 C-18.56753906 44.33067383 -18.19757813 43.72384766 -17.81640625 43.09863281 C-13.49091201 35.77700205 -12.16247584 29.41274265 -13 21 C-14.33207558 17.54871328 -15.40996081 15.59003919 -18 13 C-18.4375 9.6875 -18.4375 9.6875 -18 6 C-12.61279049 -0.52135888 -8.08168597 -0.64419236 0 0 Z " fill="#654B56" transform="translate(1505,423)"/>
<path d="M0 0 C2.36293002 1.15632746 4.14983755 2.14983755 6 4 C6.28567149 8.28698711 5.74832021 11.33119025 4.0859375 15.26953125 C3.66183594 16.30134521 3.23773437 17.33315918 2.80078125 18.39624023 C2.09501953 20.08728882 2.09501953 20.08728882 1.375 21.8125 C-8.82004945 47.04625614 -17.35293665 72.92579563 -25.125 99 C-25.45830322 100.11337234 -25.45830322 100.11337234 -25.79833984 101.24923706 C-28.14992195 109.14029013 -30.34363154 117.0648987 -32.3046875 125.0625 C-32.56283737 126.07993286 -32.56283737 126.07993286 -32.82620239 127.11791992 C-33.95828458 131.8846127 -34.22963777 136.13833543 -34 141 C-32.78556725 142.43827256 -32.78556725 142.43827256 -29.1875 142.1875 C-25.84591079 142.16371645 -23.96401921 141.53311338 -21 140 C-18.25 140.375 -18.25 140.375 -16 141 C-16.02773006 147.11447891 -16.91885782 151.08094803 -21.2890625 155.4921875 C-27.49163959 160.95838557 -32.34253108 161.81473024 -40.60546875 161.5859375 C-45.89804829 160.67237371 -48.799257 158.19986995 -52 154 C-54.42021274 149.81963253 -55.03454609 144.71429091 -56 140 C-56.49628906 140.65226563 -56.99257812 141.30453125 -57.50390625 141.9765625 C-61.59185417 147.23581997 -65.51859714 152.15959924 -71 156 C-71.69222656 156.48597656 -72.38445312 156.97195313 -73.09765625 157.47265625 C-80.61595958 161.97861768 -88.53480996 162.1091706 -97 161 C-103.70442783 158.59151786 -107.60174006 153.8483073 -110.6875 147.5625 C-116.20605436 131.43134109 -111.62438247 114.87015563 -104.62109375 100.08984375 C-97.18506924 85.68381261 -86.09523633 73.95432927 -72 66 C-71.28328125 65.56429687 -70.5665625 65.12859375 -69.828125 64.6796875 C-62.98492678 61.0008253 -55.58216992 61.14825845 -48 62 C-44.00102506 63.25114128 -40.99029299 65.00970701 -38 68 C-35.96801623 62.67367186 -34.08180603 57.32974364 -32.328125 51.90625 C-31.82329296 50.36446007 -31.31807162 48.82279757 -30.8125 47.28125 C-30.03462471 44.90484098 -29.2589866 42.52781457 -28.49023438 40.1484375 C-25.74556277 31.66619656 -22.86407567 23.30565632 -19.31640625 15.12109375 C-19.03456482 14.46657227 -18.75272339 13.81205078 -18.46234131 13.13769531 C-14.51868483 4.29668956 -10.22662814 -1.15588326 0 0 Z M-72 86 C-72.928125 86.928125 -73.85625 87.85625 -74.8125 88.8125 C-84.84028573 100.73183188 -90.26406526 117.21662227 -90.4375 132.5625 C-90.45296875 133.705979 -90.45296875 133.705979 -90.46875 134.87255859 C-90.39664282 139.37224717 -89.90352239 142.49129379 -87 146 C-82.39088388 147.01400555 -79.46979326 145.99367001 -75.5625 143.625 C-59.01340343 131.5562003 -47.50966711 106.06386826 -43.19921875 86.4609375 C-42.87370966 82.43994282 -43.80661612 80.36318861 -46 77 C-55.87847352 70.41435099 -65.30283064 78.57881233 -72 86 Z M-55 137 C-54 139 -54 139 -54 139 Z " fill="#654B56" transform="translate(1982,414)"/>
<path d="M0 0 C2.49622735 1.94518379 4.64445049 3.95322277 6.1875 6.75 C6.1875 7.41 6.1875 8.07 6.1875 8.75 C6.991875 7.945625 7.79625 7.14125 8.625 6.3125 C12.1875 2.75 12.1875 2.75 15.8125 2.4375 C20.55307674 2.46317099 23.29460771 4.15473847 27.1875 6.75 C26.60654972 12.79679232 24.78428472 17.90861532 22.625 23.5625 C19.25898775 32.59214137 16.2107939 41.69281986 13.3125 50.8828125 C12.96985611 51.96735214 12.62721222 53.05189178 12.27418518 54.16929626 C10.54284354 59.65954428 8.82599884 65.15392015 7.12475586 70.65356445 C-1.44349643 98.08657675 -13.097578 130.22793231 -39.5 145.25 C-46.04008852 148.31881077 -52.6984583 149.11774335 -59.8125 147.75 C-62.703125 145.8828125 -62.703125 145.8828125 -64.8125 143.75 C-65.125 141 -65.125 141 -64.8125 138.75 C-63.389375 138.1621875 -63.389375 138.1621875 -61.9375 137.5625 C-60.56109743 136.9615355 -59.18624916 136.35700544 -57.8125 135.75 C-57.04035156 135.42128906 -56.26820313 135.09257813 -55.47265625 134.75390625 C-38.81892072 127.150542 -28.33459405 111.39108558 -22.02539062 94.66308594 C-20.50901259 90.39266913 -19.13013554 86.08544598 -17.8125 81.75 C-18.57820313 82.62011719 -18.57820313 82.62011719 -19.359375 83.5078125 C-26.00236381 90.64549196 -32.77765646 96.02291042 -42.703125 97.21875 C-50.04818191 97.39157487 -55.68325512 97.1268047 -61.5703125 92.3125 C-70.30874549 82.32571944 -70.80204613 70.87663335 -70.03125 58.18017578 C-68.3896541 39.94307137 -58.20340305 23.23711873 -44.9375 11 C-33.37960357 1.44118307 -14.91052129 -8.94631277 0 0 Z M-25.375 14.3125 C-38.6852448 26.68710401 -46.80361704 47.84957476 -48.015625 65.75 C-48.10548855 71.50126714 -48.15076024 75.80937485 -44.8125 80.75 C-43.67942461 82.07771855 -43.67942461 82.07771855 -40.75 82.25 C-35.10538454 81.53322343 -32.67270446 78.73640345 -28.8125 74.75 C-28.1628125 74.10933594 -27.513125 73.46867188 -26.84375 72.80859375 C-16.09542991 61.56977492 -9.51845659 47.02784484 -3.8125 32.75 C-3.53374023 32.07952637 -3.25498047 31.40905273 -2.96777344 30.71826172 C0.11770948 23.5515745 0.11770948 23.5515745 -0.890625 16.1796875 C-3.6154394 12.75525859 -6.33132016 10.98621556 -10.25 9.0625 C-16.31184701 8.53075903 -20.64905125 10.60152011 -25.375 14.3125 Z " fill="#654B56" transform="translate(2210.8125,478.25)"/>
<path d="M0 0 C1.12148437 -0.02578125 2.24296875 -0.0515625 3.3984375 -0.078125 C8.06868922 0.39681585 10.62369758 2.02259703 13.5625 5.625 C16.07763513 14.20604925 12.41513164 24.00981123 9.625 32.25 C10.07488281 31.67894531 10.52476562 31.10789062 10.98828125 30.51953125 C13.18514128 27.75034296 15.40193276 24.99820124 17.625 22.25 C18.06376465 21.70456543 18.5025293 21.15913086 18.95458984 20.59716797 C24.2591607 14.03311612 29.3640023 7.74335284 36.625 3.25 C37.9553125 2.321875 37.9553125 2.321875 39.3125 1.375 C45.19318833 -0.6222149 51.89955132 -0.89083809 57.8828125 0.94140625 C63.05281953 3.6159337 65.82688498 7.85565493 67.625 13.25 C68.64493605 25.897207 63.0141305 37.16740462 57.625 48.3125 C49.73244163 63.57580607 49.73244163 63.57580607 47.625 80.25 C52.71459486 80.42252864 55.9059815 80.21625771 60.625 78.25 C62.9375 78.625 62.9375 78.625 64.625 79.25 C65.0846998 84.99624746 64.30000704 87.80130726 60.625 92.25 C53.97384954 98.68774456 49.1266862 99.70866213 39.984375 99.56640625 C34.35845772 99.03652334 31.91682087 96.71639125 28.3125 92.625 C24.08540843 86.67576001 25.00575932 79.27166429 25.625 72.25 C27.77563245 59.68979746 33.60489949 48.30959166 39.16674805 36.95800781 C40.00459839 35.22695801 40.00459839 35.22695801 40.859375 33.4609375 C41.36694336 32.43274902 41.87451172 31.40456055 42.39746094 30.34521484 C43.73854838 26.96369005 44.24576537 23.85725717 44.625 20.25 C41.57848166 19.71685929 39.44742551 19.72280416 36.796875 21.421875 C27.06116306 29.73284861 19.00337759 39.94538783 11.28930664 50.10498047 C9.99950898 51.76731907 8.67367386 53.40172804 7.33374023 55.02392578 C0.64255179 63.22938497 -3.94131609 71.76680371 -8.3125 81.375 C-9.27891268 83.4706252 -10.24994328 85.5638826 -11.22816467 87.65402222 C-12.10039528 89.52158392 -12.95872853 91.39561813 -13.81616211 93.27001953 C-15.15662299 95.83253566 -16.11656803 97.49357042 -18.375 99.25 C-22.61049084 100.05902634 -26.39334609 99.68861132 -30.3125 97.9375 C-33.20679832 95.56943774 -34.29084604 93.89930552 -34.7734375 90.17578125 C-34.24483051 84.96744771 -32.29266572 81.09580865 -30 76.4375 C-14.19670247 46.42804893 -14.19670247 46.42804893 -10.375 14.25 C-11.07625 13.569375 -11.7775 12.88875 -12.5 12.1875 C-14.375 10.25 -14.375 10.25 -14.375 7.1875 C-13.24030945 3.85434651 -12.40332921 2.94230162 -9.375 1.25 C-6.07164934 0.14888311 -3.47667863 0.04773472 0 0 Z M7.625 33.25 C8.625 35.25 8.625 35.25 8.625 35.25 Z " fill="#654B56" transform="translate(2059.375,475.75)"/>
<path d="M0 0 C0.79019531 -0.020625 1.58039063 -0.04125 2.39453125 -0.0625 C8.81795518 -0.10525157 12.90234164 1.28579028 17.8125 5.625 C24.55134825 13.27450342 24.74329415 20.34562761 24.125 30.25 C22.56718011 39.52545969 16.81409763 46.5359887 9.375 52 C-4.26207578 60.91258205 -18.73760354 64.50842806 -34.875 64.25 C-34.57120228 72.75788331 -34.57120228 72.75788331 -30.875 80.25 C-30.875 80.91 -30.875 81.57 -30.875 82.25 C-22.30786619 85.10571127 -13.75331739 83.51576309 -5.73828125 79.83203125 C-1.90602506 77.71461821 1.54719968 75.23364759 4.96875 72.5078125 C7.125 71.25 7.125 71.25 9.28125 71.3671875 C11.125 72.25 11.125 72.25 13.125 75.25 C13.61930518 80.4896349 13.09756712 83.88404204 10.125 88.25 C0.65452188 97.35710246 -10.93338438 99.43561672 -23.5625 99.5625 C-24.97692383 99.60600586 -24.97692383 99.60600586 -26.41992188 99.65039062 C-34.37245617 99.7214442 -40.91085543 98.04645848 -47.4609375 93.42578125 C-55.67974488 84.86601897 -58.26816164 76.10216155 -58.078125 64.3515625 C-56.98628371 47.67998593 -49.92438003 32.5993071 -38.875 20.25 C-38.23046875 19.41855469 -37.5859375 18.58710938 -36.921875 17.73046875 C-27.58401532 6.41455101 -14.43872788 0.09330357 0 0 Z M-20.875 27.25 C-26.0782677 35.64540397 -30.79731322 44.53024693 -32.875 54.25 C-19.27976254 52.31195551 -9.56354962 46.14920107 -0.6953125 35.67578125 C3.52195434 30.05577544 4.79830233 25.09524032 4.125 18.25 C3.32926487 15.63239295 3.32926487 15.63239295 1.125 14.25 C-9.21988183 12.89329419 -15.10050328 19.34145015 -20.875 27.25 Z " fill="#654B56" transform="translate(1779.875,475.75)"/>
<path d="M0 0 C0.79019531 -0.020625 1.58039063 -0.04125 2.39453125 -0.0625 C8.81795518 -0.10525157 12.90234164 1.28579028 17.8125 5.625 C24.55134825 13.27450342 24.74329415 20.34562761 24.125 30.25 C22.56718011 39.52545969 16.81409763 46.5359887 9.375 52 C-4.26207578 60.91258205 -18.73760354 64.50842806 -34.875 64.25 C-34.57120228 72.75788331 -34.57120228 72.75788331 -30.875 80.25 C-30.875 80.91 -30.875 81.57 -30.875 82.25 C-22.30786619 85.10571127 -13.75331739 83.51576309 -5.73828125 79.83203125 C-1.90602506 77.71461821 1.54719968 75.23364759 4.96875 72.5078125 C7.125 71.25 7.125 71.25 9.28125 71.3671875 C11.125 72.25 11.125 72.25 13.125 75.25 C13.61930518 80.4896349 13.09756712 83.88404204 10.125 88.25 C0.65452188 97.35710246 -10.93338438 99.43561672 -23.5625 99.5625 C-24.97692383 99.60600586 -24.97692383 99.60600586 -26.41992188 99.65039062 C-34.37245617 99.7214442 -40.91085543 98.04645848 -47.4609375 93.42578125 C-55.67974488 84.86601897 -58.26816164 76.10216155 -58.078125 64.3515625 C-56.98628371 47.67998593 -49.92438003 32.5993071 -38.875 20.25 C-38.23046875 19.41855469 -37.5859375 18.58710938 -36.921875 17.73046875 C-27.58401532 6.41455101 -14.43872788 0.09330357 0 0 Z M-20.875 27.25 C-26.0782677 35.64540397 -30.79731322 44.53024693 -32.875 54.25 C-19.27976254 52.31195551 -9.56354962 46.14920107 -0.6953125 35.67578125 C3.52195434 30.05577544 4.79830233 25.09524032 4.125 18.25 C3.32926487 15.63239295 3.32926487 15.63239295 1.125 14.25 C-9.21988183 12.89329419 -15.10050328 19.34145015 -20.875 27.25 Z " fill="#654B56" transform="translate(1554.875,475.75)"/>
<path d="M0 0 C3.20824247 1.49717982 5.72932114 3.27518536 8 6 C14.86062723 26.58188168 -2.76743978 59.59749484 -9.5625 79.25 C-17.43421772 101.56230498 -17.43421772 101.56230498 -24.1953125 124.22265625 C-24.38746841 124.94773376 -24.57962433 125.67281128 -24.77760315 126.41986084 C-26.10410582 131.73979083 -26.44677043 136.5494008 -26 142 C-24.72125 142.020625 -23.4425 142.04125 -22.125 142.0625 C-21.04605469 142.07990234 -21.04605469 142.07990234 -19.9453125 142.09765625 C-17.91814596 142.12649242 -17.91814596 142.12649242 -16 141 C-14.00039988 140.960008 -11.99952758 140.95653201 -10 141 C-9.5403002 146.74624746 -10.32499296 149.55130726 -14 154 C-19.20259916 159.03567084 -23.15437172 161.2872406 -30.4375 161.3125 C-31.54996094 161.32925781 -32.66242188 161.34601563 -33.80859375 161.36328125 C-38.53024121 160.82581098 -41.05605621 159.05182308 -44.1875 155.5625 C-49.1611383 148.53080448 -49.00568423 141.32664015 -48 133 C-47.17251868 129.23458202 -46.08432048 125.56826445 -44.95703125 121.8828125 C-44.6451889 120.83966888 -44.33334656 119.79652527 -44.01205444 118.72177124 C-40.95369987 108.60902374 -37.57128658 98.61050516 -34.14685059 88.61715698 C-25.47436707 63.2226106 -16.84288304 37.50251666 -13.31347656 10.79467773 C-12.77358545 6.98830067 -12.42132007 4.58329817 -10.140625 1.42578125 C-6.89400029 -0.73666039 -3.71973513 -0.6224258 0 0 Z " fill="#654B56" transform="translate(1715,414)"/>
<path d="M0 0 C5.83120253 4.0407494 9.89282271 8.26505031 11.55078125 15.35546875 C13.0681065 24.28789653 12.36895515 33.33538515 7.67578125 41.2265625 C2.0896351 49.05596419 -4.94579564 54.15449387 -14.26953125 56.59375 C-25.68207447 58.29175357 -38.87757189 58.13565966 -48.875 51.8125 C-55.21888161 46.71609631 -57.99578651 39.90818122 -59 32 C-59.7189946 22.9406681 -57.54341166 14.89346123 -51.71875 7.8125 C-39.24751833 -5.33898067 -16.00301078 -9.40866668 0 0 Z " fill="#654B56" transform="translate(2332,103)"/>
<path d="M0 0 C3.34815143 1.57698521 5.32561139 3.65122277 7 7 C8.08299851 15.94247339 5.96920288 23.39943131 3.09375 31.7265625 C1.89436441 34.74093048 1.89436441 34.74093048 2 37 C2.47308594 36.05640625 2.94617187 35.1128125 3.43359375 34.140625 C9.88873144 21.51136715 17.85295259 6.63118619 31 0 C35.06102589 -0.64803605 38.93425767 -0.61857767 43 0 C45.97361086 2.21563162 47.36959793 3.73919585 49 7 C49.7409376 14.2150317 49.15485321 19.94968456 45 26 C43 28 43 28 39.1875 28.375 C34.94325185 28.30605012 33.23022019 26.7064007 30 24 C23.51981854 24.57578349 19.7677149 28.72472942 15.72460938 33.50927734 C4.20466403 47.83330894 -4.05800967 64.06424569 -11 81 C-11.31630371 81.76924805 -11.63260742 82.53849609 -11.95849609 83.33105469 C-12.28543457 84.12672852 -12.61237305 84.92240234 -12.94921875 85.7421875 C-13.27124268 86.52585693 -13.5932666 87.30952637 -13.92504883 88.11694336 C-14.54730034 89.63698978 -15.16577338 91.15858974 -15.7800293 92.68188477 C-17.89374549 97.89374549 -17.89374549 97.89374549 -19 99 C-23.68919232 99.60219101 -27.14302761 99.44435606 -31.375 97.25 C-32.24125 96.5075 -33.1075 95.765 -34 95 C-34.66 94.443125 -35.32 93.88625 -36 93.3125 C-39.02840548 86.30931232 -32.40382637 74.98931947 -29.8125 68.4375 C-18.68495146 42.92544314 -18.68495146 42.92544314 -16 16 C-17.39323429 13.49724459 -18.9165958 12.03258946 -21 10 C-21.625 7.375 -21.625 7.375 -21 5 C-14.68104411 -0.98637927 -8.42978482 -0.88029535 0 0 Z " fill="#654B56" transform="translate(1621,476)"/>
<path d="M0 0 C0 14.19 0 28.38 0 43 C-3.96 42.67 -7.92 42.34 -12 42 C-32.0240141 41.05769345 -48.98417916 48.30126907 -66 58 C-68.19285228 55.80714772 -67.24962343 50.47152539 -67.25097656 47.4296875 C-67.16068857 41.25727211 -66.18939628 35.79714059 -64 30 C-63.74476563 29.30777344 -63.48953125 28.61554688 -63.2265625 27.90234375 C-58.01905439 15.88685486 -47.59098408 8.69280904 -35.9375 3.75 C-26.66970468 0.26554029 -9.32651407 -4.66325703 0 0 Z " fill="#FFE5F1" transform="translate(919,130)"/>
<path d="M0 0 C10.43263724 7.33602406 16.1825831 18.07813521 18.6875 30.375 C19.83969466 43.74045802 19.83969466 43.74045802 17 48 C16.14019531 47.48050781 15.28039062 46.96101563 14.39453125 46.42578125 C-6.02701487 34.28709999 -24.32920458 31.02743372 -48 33 C-48 18.81 -48 4.62 -48 -10 C-31.6528513 -13.26942974 -13.81411493 -9.07784695 0 0 Z " fill="#FFE5F1" transform="translate(99,140)"/>
<path d="M0 0 C1.06154297 -0.0309375 1.06154297 -0.0309375 2.14453125 -0.0625 C6.66901959 -0.09620196 9.54074425 0.44256013 13.125 3.25 C15.66140937 8.32281874 13.65423327 15.39223876 12.17578125 20.58203125 C8.31311264 31.28846707 3.45539305 41.62090195 -1.29199219 51.95874023 C-7.36341118 64.59445563 -7.36341118 64.59445563 -8.875 78.25 C-5.86721479 79.25259507 -3.33679353 79.55314642 -0.1875 79.8125 C1.30330078 79.93818359 1.30330078 79.93818359 2.82421875 80.06640625 C3.58347656 80.12699219 4.34273437 80.18757812 5.125 80.25 C6.39032527 84.20414148 5.80333994 86.44485246 4.28125 90.21484375 C1.7670804 94.64012201 -2.09363553 97.65621184 -6.875 99.25 C-20.28814149 100.26639954 -20.28814149 100.26639954 -24.5625 97.5 C-29.19068737 92.99689877 -31.01664965 89.56938475 -31.25 83.0625 C-31.00872188 68.51687628 -23.74662439 54.72661485 -18.15332031 41.54125977 C-12.19583189 29.30908406 -12.19583189 29.30908406 -10.875 16.25 C-11.720625 15.26 -12.56625 14.27 -13.4375 13.25 C-15.875 10.25 -15.875 10.25 -15.9375 7.0625 C-14.73044716 3.86736013 -13.82168202 2.89667525 -10.875 1.25 C-7.21649645 0.03049882 -3.81096431 0.02746641 0 0 Z " fill="#654B56" transform="translate(2005.875,475.75)"/>
<path d="M0 0 C1.06154297 -0.0309375 1.06154297 -0.0309375 2.14453125 -0.0625 C6.66901959 -0.09620196 9.54074425 0.44256013 13.125 3.25 C15.66140937 8.32281874 13.65423327 15.39223876 12.17578125 20.58203125 C8.31311264 31.28846707 3.45539305 41.62090195 -1.29199219 51.95874023 C-7.36341118 64.59445563 -7.36341118 64.59445563 -8.875 78.25 C-5.86721479 79.25259507 -3.33679353 79.55314642 -0.1875 79.8125 C1.30330078 79.93818359 1.30330078 79.93818359 2.82421875 80.06640625 C3.58347656 80.12699219 4.34273437 80.18757812 5.125 80.25 C6.39032527 84.20414148 5.80333994 86.44485246 4.28125 90.21484375 C1.7670804 94.64012201 -2.09363553 97.65621184 -6.875 99.25 C-20.28814149 100.26639954 -20.28814149 100.26639954 -24.5625 97.5 C-29.19068737 92.99689877 -31.01664965 89.56938475 -31.25 83.0625 C-31.00872188 68.51687628 -23.74662439 54.72661485 -18.15332031 41.54125977 C-12.19583189 29.30908406 -12.19583189 29.30908406 -10.875 16.25 C-11.720625 15.26 -12.56625 14.27 -13.4375 13.25 C-15.875 10.25 -15.875 10.25 -15.9375 7.0625 C-14.73044716 3.86736013 -13.82168202 2.89667525 -10.875 1.25 C-7.21649645 0.03049882 -3.81096431 0.02746641 0 0 Z " fill="#654B56" transform="translate(1841.875,475.75)"/>
<path d="M0 0 C3.34640876 1.3502124 5.26484915 2.81889011 7 6 C8.01879831 10.76982844 7.43052423 14.73234532 5.875 19.3125 C2.66189501 23.91795049 -1.45262818 27.67919719 -7 29 C-11.52462164 29.15697667 -14.23062265 28.61550188 -17.8125 25.75 C-18.534375 24.8425 -19.25625 23.935 -20 23 C-20.598125 22.2575 -21.19625 21.515 -21.8125 20.75 C-23.52767413 16.7780178 -23.67611488 13.25952377 -23 9 C-18.10806005 -0.78387991 -10.04345107 -1.37060857 0 0 Z " fill="#654B56" transform="translate(2026,427)"/>
<path d="M0 0 C3.34640876 1.3502124 5.26484915 2.81889011 7 6 C8.01879831 10.76982844 7.43052423 14.73234532 5.875 19.3125 C2.66189501 23.91795049 -1.45262818 27.67919719 -7 29 C-11.52462164 29.15697667 -14.23062265 28.61550188 -17.8125 25.75 C-18.534375 24.8425 -19.25625 23.935 -20 23 C-20.598125 22.2575 -21.19625 21.515 -21.8125 20.75 C-23.52767413 16.7780178 -23.67611488 13.25952377 -23 9 C-18.10806005 -0.78387991 -10.04345107 -1.37060857 0 0 Z " fill="#654B56" transform="translate(1862,427)"/>
</svg>
